<?xml version="1.0" encoding="UTF-8" standalone="no"?><svg width="803" height="784" viewBox="0 0 803 784" fill="none" xmlns="http://www.w3.org/2000/svg">
<rect x="130" width="543" height="497" rx="30" fill="#F7EAF9"/>
<g filter="url(#filter0_d_205_11525)">
<rect x="188" y="50" width="525" height="601.685" rx="23.5955" fill="white"/>
</g>
<path d="M229.989 141.493H231.574V150.851C231.574 151.687 231.421 152.396 231.114 152.98C230.807 153.564 230.375 154.007 229.817 154.309C229.258 154.612 228.6 154.763 227.841 154.763C227.126 154.763 226.488 154.633 225.93 154.373C225.372 154.109 224.933 153.734 224.613 153.248C224.294 152.762 224.134 152.185 224.134 151.516H225.694C225.694 151.887 225.785 152.211 225.969 152.488C226.156 152.76 226.412 152.973 226.736 153.127C227.059 153.28 227.428 153.357 227.841 153.357C228.297 153.357 228.685 153.261 229.005 153.069C229.324 152.878 229.567 152.596 229.733 152.226C229.904 151.851 229.989 151.392 229.989 150.851V141.493ZM240.554 150.57V144.766H242.063V154.584H240.554V152.922H240.452C240.222 153.421 239.864 153.845 239.378 154.194C238.892 154.539 238.279 154.712 237.537 154.712C236.924 154.712 236.378 154.578 235.901 154.309C235.424 154.037 235.049 153.628 234.776 153.082C234.503 152.532 234.367 151.84 234.367 151.005V144.766H235.875V150.902C235.875 151.618 236.076 152.189 236.476 152.615C236.881 153.042 237.397 153.255 238.023 153.255C238.398 153.255 238.779 153.159 239.167 152.967C239.559 152.775 239.887 152.481 240.151 152.085C240.42 151.689 240.554 151.184 240.554 150.57ZM246.154 148.678V154.584H244.646V144.766H246.103V146.3H246.231C246.461 145.802 246.81 145.401 247.279 145.098C247.748 144.792 248.353 144.638 249.095 144.638C249.759 144.638 250.341 144.775 250.84 145.047C251.338 145.316 251.726 145.725 252.003 146.275C252.28 146.82 252.418 147.51 252.418 148.346V154.584H250.91V148.448C250.91 147.677 250.71 147.076 250.309 146.645C249.908 146.211 249.359 145.993 248.66 145.993C248.178 145.993 247.748 146.098 247.369 146.307C246.994 146.515 246.698 146.82 246.48 147.221C246.263 147.621 246.154 148.107 246.154 148.678ZM264.454 141.493V154.584H262.869V143.155H262.792L259.596 145.277V143.667L262.869 141.493H264.454ZM272.309 154.763C271.346 154.763 270.526 154.501 269.848 153.977C269.17 153.449 268.653 152.684 268.295 151.682C267.937 150.677 267.758 149.462 267.758 148.039C267.758 146.624 267.937 145.416 268.295 144.414C268.657 143.409 269.177 142.642 269.854 142.113C270.536 141.581 271.354 141.314 272.309 141.314C273.264 141.314 274.08 141.581 274.757 142.113C275.439 142.642 275.959 143.409 276.317 144.414C276.679 145.416 276.86 146.624 276.86 148.039C276.86 149.462 276.681 150.677 276.323 151.682C275.965 152.684 275.447 153.449 274.77 153.977C274.092 154.501 273.272 154.763 272.309 154.763ZM272.309 153.357C273.264 153.357 274.005 152.897 274.533 151.976C275.062 151.056 275.326 149.743 275.326 148.039C275.326 146.905 275.205 145.94 274.962 145.143C274.723 144.346 274.378 143.739 273.926 143.321C273.479 142.904 272.94 142.695 272.309 142.695C271.363 142.695 270.624 143.162 270.091 144.095C269.558 145.024 269.292 146.338 269.292 148.039C269.292 149.172 269.411 150.135 269.65 150.928C269.889 151.721 270.232 152.324 270.679 152.737C271.131 153.15 271.674 153.357 272.309 153.357ZM289.642 147.336V148.742H283.915V147.336H289.642ZM297.74 154.584H296.079L300.885 141.493H302.522L307.329 154.584H305.667L301.755 143.564H301.652L297.74 154.584ZM298.354 149.471H305.053V150.877H298.354V149.471ZM315.171 150.57V144.766H316.679V154.584H315.171V152.922H315.068C314.838 153.421 314.48 153.845 313.994 154.194C313.509 154.539 312.895 154.712 312.153 154.712C311.54 154.712 310.994 154.578 310.517 154.309C310.04 154.037 309.665 153.628 309.392 153.082C309.119 152.532 308.983 151.84 308.983 151.005V144.766H310.492V150.902C310.492 151.618 310.692 152.189 311.092 152.615C311.497 153.042 312.013 153.255 312.639 153.255C313.014 153.255 313.396 153.159 313.783 152.967C314.175 152.775 314.504 152.481 314.768 152.085C315.036 151.689 315.171 151.184 315.171 150.57ZM323.225 158.471C322.496 158.471 321.87 158.377 321.346 158.189C320.822 158.006 320.385 157.763 320.035 157.461C319.69 157.162 319.415 156.843 319.211 156.502L320.413 155.658C320.549 155.837 320.722 156.042 320.93 156.272C321.139 156.506 321.425 156.709 321.787 156.879C322.153 157.054 322.633 157.141 323.225 157.141C324.018 157.141 324.672 156.949 325.187 156.566C325.703 156.182 325.961 155.581 325.961 154.763V152.769H325.833C325.722 152.948 325.565 153.169 325.36 153.434C325.16 153.694 324.87 153.926 324.491 154.13C324.116 154.331 323.609 154.431 322.969 154.431C322.177 154.431 321.465 154.243 320.834 153.868C320.208 153.493 319.712 152.948 319.345 152.232C318.983 151.516 318.802 150.647 318.802 149.624C318.802 148.618 318.979 147.743 319.332 146.997C319.686 146.247 320.178 145.667 320.809 145.258C321.44 144.845 322.168 144.638 322.995 144.638C323.634 144.638 324.141 144.745 324.516 144.958C324.896 145.167 325.185 145.405 325.386 145.674C325.59 145.938 325.748 146.155 325.859 146.326H326.012V144.766H327.469V154.865C327.469 155.709 327.278 156.395 326.894 156.924C326.515 157.456 326.003 157.846 325.36 158.093C324.721 158.345 324.009 158.471 323.225 158.471ZM323.174 153.076C323.779 153.076 324.29 152.937 324.708 152.66C325.126 152.383 325.443 151.985 325.66 151.465C325.878 150.945 325.986 150.323 325.986 149.598C325.986 148.891 325.88 148.267 325.667 147.726C325.454 147.184 325.138 146.76 324.721 146.454C324.303 146.147 323.788 145.993 323.174 145.993C322.535 145.993 322.002 146.155 321.576 146.479C321.154 146.803 320.837 147.238 320.624 147.783C320.415 148.329 320.31 148.934 320.31 149.598C320.31 150.28 320.417 150.883 320.63 151.407C320.847 151.927 321.167 152.336 321.589 152.635C322.015 152.929 322.543 153.076 323.174 153.076ZM339.51 141.493V154.584H337.925V143.155H337.848L334.652 145.277V143.667L337.925 141.493H339.51ZM347.365 154.763C346.402 154.763 345.581 154.501 344.904 153.977C344.226 153.449 343.709 152.684 343.351 151.682C342.993 150.677 342.814 149.462 342.814 148.039C342.814 146.624 342.993 145.416 343.351 144.414C343.713 143.409 344.233 142.642 344.91 142.113C345.592 141.581 346.41 141.314 347.365 141.314C348.319 141.314 349.135 141.581 349.813 142.113C350.495 142.642 351.015 143.409 351.373 144.414C351.735 145.416 351.916 146.624 351.916 148.039C351.916 149.462 351.737 150.677 351.379 151.682C351.021 152.684 350.503 153.449 349.826 153.977C349.148 154.501 348.328 154.763 347.365 154.763ZM347.365 153.357C348.319 153.357 349.061 152.897 349.589 151.976C350.118 151.056 350.382 149.743 350.382 148.039C350.382 146.905 350.26 145.94 350.017 145.143C349.779 144.346 349.434 143.739 348.982 143.321C348.535 142.904 347.995 142.695 347.365 142.695C346.419 142.695 345.679 143.162 345.147 144.095C344.614 145.024 344.348 146.338 344.348 148.039C344.348 149.172 344.467 150.135 344.706 150.928C344.944 151.721 345.287 152.324 345.735 152.737C346.187 153.15 346.73 153.357 347.365 153.357Z" fill="#627193"/>
<circle cx="451.091" cy="406.292" r="176.966" fill="#D8DCF9"/>
<path d="M576.225 281.158C599.47 304.402 615.781 333.662 623.329 365.656C630.877 397.65 629.365 431.115 618.962 462.298C608.558 493.481 589.675 521.15 564.428 542.203C539.182 563.256 508.571 576.861 476.026 581.493C443.481 586.125 410.29 581.6 380.172 568.426C350.055 555.253 324.202 533.951 305.512 506.908C286.822 479.866 276.033 448.152 274.356 415.322C272.678 382.492 280.178 349.844 296.015 321.038L451.091 406.292L576.225 281.158Z" fill="#A054F3"/>
<g filter="url(#filter1_d_205_11525)">
<circle cx="451.091" cy="406.292" r="96.7416" fill="white"/>
</g>
<g filter="url(#filter2_d_205_11525)">
<circle cx="436.933" cy="215.168" r="68.427" fill="white"/>
</g>
<path d="M403.369 210.895V208.399C407.329 205.039 411.481 201.943 411.481 198.727C411.481 197.167 410.785 196.111 409.129 196.111C407.521 196.111 406.633 197.263 406.609 199.111H403.345C403.465 195.103 406.033 193.255 409.177 193.255C412.945 193.255 414.841 195.487 414.841 198.535C414.841 202.591 410.929 205.759 408.145 208.111H415.225V210.895H403.369ZM417.87 206.215H420.99C421.254 207.607 422.142 208.399 423.702 208.399C425.67 208.399 426.534 206.935 426.534 202.999C425.79 204.031 424.374 204.631 422.838 204.631C419.814 204.631 417.39 202.735 417.39 199.039C417.39 195.535 419.598 193.231 423.294 193.231C428.046 193.231 429.51 196.447 429.51 201.991C429.51 207.943 428.19 211.159 423.558 211.159C419.838 211.159 418.062 208.783 417.87 206.215ZM423.534 201.895C425.214 201.895 426.222 200.767 426.222 199.063C426.222 197.143 425.118 196.087 423.414 196.087C421.662 196.087 420.606 197.263 420.606 199.015C420.606 200.599 421.494 201.895 423.534 201.895ZM435.797 209.335C435.797 210.439 434.933 211.303 433.757 211.303C432.533 211.303 431.669 210.439 431.669 209.335C431.669 208.231 432.533 207.367 433.757 207.367C434.933 207.367 435.797 208.231 435.797 209.335ZM438.792 193.591H449.64V196.543H441.864V200.647C442.512 199.855 443.832 199.231 445.296 199.231C449.376 199.231 450.768 202.303 450.768 205.015C450.768 208.591 448.704 211.135 444.72 211.135C440.952 211.135 438.792 209.047 438.504 206.191H441.768C442.056 207.415 443.04 208.303 444.672 208.303C446.64 208.303 447.528 206.911 447.528 205.063C447.528 203.095 446.544 202.015 444.648 202.015C443.256 202.015 442.368 202.783 442.008 203.863H438.792V193.591ZM452.701 197.935C452.701 195.439 454.333 194.047 456.517 194.047C458.701 194.047 460.333 195.439 460.333 197.935C460.333 200.455 458.701 201.847 456.517 201.847C454.333 201.847 452.701 200.455 452.701 197.935ZM456.493 196.063C455.677 196.063 455.173 196.615 455.173 197.935C455.173 199.255 455.677 199.831 456.493 199.831C457.333 199.831 457.861 199.255 457.861 197.935C457.861 196.615 457.333 196.063 456.493 196.063ZM455.413 211.135L464.821 194.335H468.109L458.677 211.135H455.413ZM463.237 207.511C463.237 204.991 464.869 203.623 467.053 203.623C469.213 203.623 470.821 204.991 470.821 207.511C470.821 210.055 469.213 211.423 467.053 211.423C464.869 211.423 463.237 210.055 463.237 207.511ZM467.029 205.639C466.189 205.639 465.661 206.191 465.661 207.511C465.661 208.855 466.189 209.407 467.029 209.407C467.845 209.407 468.373 208.855 468.373 207.511C468.373 206.191 467.845 205.639 467.029 205.639Z" fill="#0066FC"/>
<path d="M396.691 226.976H398.583L403.032 237.843H403.185L407.634 226.976H409.526V240.067H408.043V230.121H407.915L403.824 240.067H402.393L398.302 230.121H398.174V240.067H396.691V226.976ZM415.209 240.297C414.587 240.297 414.023 240.18 413.515 239.946C413.008 239.707 412.606 239.364 412.307 238.917C412.009 238.465 411.86 237.92 411.86 237.28C411.86 236.718 411.971 236.262 412.192 235.913C412.414 235.559 412.71 235.282 413.081 235.082C413.451 234.881 413.861 234.732 414.308 234.634C414.76 234.532 415.214 234.451 415.67 234.391C416.266 234.315 416.75 234.257 417.121 234.219C417.496 234.176 417.768 234.106 417.939 234.008C418.113 233.91 418.201 233.739 418.201 233.496V233.445C418.201 232.815 418.028 232.324 417.683 231.975C417.342 231.626 416.824 231.451 416.13 231.451C415.41 231.451 414.845 231.609 414.436 231.924C414.027 232.239 413.739 232.576 413.573 232.934L412.141 232.422C412.397 231.826 412.738 231.361 413.164 231.029C413.594 230.692 414.063 230.458 414.57 230.326C415.081 230.19 415.584 230.121 416.079 230.121C416.394 230.121 416.756 230.16 417.165 230.236C417.579 230.309 417.977 230.46 418.361 230.69C418.748 230.92 419.07 231.268 419.326 231.732C419.581 232.197 419.709 232.819 419.709 233.599V240.067H418.201V238.738H418.124C418.022 238.951 417.851 239.179 417.613 239.422C417.374 239.665 417.057 239.871 416.66 240.042C416.264 240.212 415.78 240.297 415.209 240.297ZM415.439 238.942C416.036 238.942 416.539 238.825 416.948 238.591C417.361 238.356 417.672 238.054 417.881 237.683C418.094 237.312 418.201 236.922 418.201 236.513V235.133C418.137 235.209 417.996 235.28 417.779 235.344C417.566 235.403 417.319 235.457 417.037 235.503C416.76 235.546 416.49 235.584 416.226 235.619C415.966 235.648 415.755 235.674 415.593 235.695C415.201 235.746 414.834 235.829 414.493 235.945C414.157 236.055 413.884 236.224 413.675 236.449C413.471 236.671 413.368 236.974 413.368 237.357C413.368 237.881 413.562 238.278 413.95 238.546C414.342 238.81 414.839 238.942 415.439 238.942ZM422.283 240.067V230.249H423.74V231.732H423.842C424.021 231.246 424.345 230.852 424.814 230.55C425.283 230.247 425.811 230.096 426.399 230.096C426.51 230.096 426.648 230.098 426.815 230.102C426.981 230.106 427.107 230.113 427.192 230.121V231.655C427.141 231.643 427.023 231.623 426.84 231.598C426.661 231.568 426.472 231.553 426.271 231.553C425.794 231.553 425.368 231.653 424.993 231.854C424.622 232.05 424.328 232.322 424.111 232.672C423.898 233.017 423.791 233.411 423.791 233.854V240.067H422.283ZM430.206 236.488L430.181 234.621H430.487L434.783 230.249H436.649L432.073 234.877H431.945L430.206 236.488ZM428.8 240.067V226.976H430.308V240.067H428.8ZM435.039 240.067L431.203 235.209L432.277 234.161L436.956 240.067H435.039ZM442.123 240.272C441.177 240.272 440.361 240.063 439.675 239.646C438.993 239.224 438.467 238.636 438.096 237.881C437.73 237.123 437.546 236.241 437.546 235.235C437.546 234.229 437.73 233.343 438.096 232.576C438.467 231.805 438.983 231.204 439.643 230.773C440.308 230.339 441.083 230.121 441.97 230.121C442.481 230.121 442.986 230.207 443.485 230.377C443.983 230.547 444.437 230.824 444.846 231.208C445.255 231.587 445.581 232.09 445.824 232.717C446.067 233.343 446.188 234.114 446.188 235.03V235.67H438.62V234.366H444.654C444.654 233.812 444.544 233.317 444.322 232.883C444.105 232.448 443.794 232.105 443.389 231.854C442.988 231.602 442.515 231.476 441.97 231.476C441.369 231.476 440.849 231.626 440.41 231.924C439.975 232.218 439.641 232.601 439.407 233.074C439.172 233.547 439.055 234.055 439.055 234.596V235.465C439.055 236.207 439.183 236.835 439.438 237.351C439.698 237.862 440.059 238.252 440.519 238.521C440.979 238.785 441.514 238.917 442.123 238.917C442.519 238.917 442.877 238.861 443.197 238.751C443.521 238.636 443.8 238.465 444.034 238.239C444.269 238.009 444.45 237.724 444.578 237.383L446.035 237.792C445.882 238.286 445.624 238.721 445.262 239.096C444.899 239.467 444.452 239.756 443.919 239.965C443.387 240.17 442.788 240.272 442.123 240.272ZM452.573 230.249V231.528H447.485V230.249H452.573ZM448.968 227.897H450.477V237.255C450.477 237.681 450.538 238.001 450.662 238.214C450.79 238.422 450.952 238.563 451.148 238.636C451.348 238.704 451.559 238.738 451.78 238.738C451.947 238.738 452.083 238.729 452.19 238.712C452.296 238.691 452.381 238.674 452.445 238.661L452.752 240.016C452.65 240.055 452.507 240.093 452.324 240.131C452.141 240.174 451.908 240.195 451.627 240.195C451.201 240.195 450.783 240.104 450.374 239.92C449.969 239.737 449.633 239.458 449.364 239.083C449.1 238.708 448.968 238.235 448.968 237.664V227.897ZM454.662 240.067V230.249H456.171V240.067H454.662ZM455.429 228.613C455.135 228.613 454.882 228.513 454.669 228.312C454.46 228.112 454.355 227.871 454.355 227.59C454.355 227.309 454.46 227.068 454.669 226.868C454.882 226.668 455.135 226.567 455.429 226.567C455.723 226.567 455.975 226.668 456.184 226.868C456.397 227.068 456.503 227.309 456.503 227.59C456.503 227.871 456.397 228.112 456.184 228.312C455.975 228.513 455.723 228.613 455.429 228.613ZM460.262 234.161V240.067H458.754V230.249H460.211V231.783H460.339C460.569 231.285 460.919 230.884 461.387 230.582C461.856 230.275 462.461 230.121 463.203 230.121C463.867 230.121 464.449 230.258 464.948 230.53C465.446 230.799 465.834 231.208 466.111 231.758C466.388 232.303 466.526 232.994 466.526 233.829V240.067H465.018V233.931C465.018 233.16 464.818 232.559 464.417 232.128C464.017 231.694 463.467 231.476 462.768 231.476C462.286 231.476 461.856 231.581 461.477 231.79C461.102 231.998 460.806 232.303 460.588 232.704C460.371 233.104 460.262 233.59 460.262 234.161ZM473.066 243.954C472.337 243.954 471.711 243.86 471.187 243.672C470.663 243.489 470.226 243.246 469.877 242.944C469.531 242.646 469.256 242.326 469.052 241.985L470.254 241.141C470.39 241.32 470.563 241.525 470.771 241.755C470.98 241.989 471.266 242.192 471.628 242.362C471.994 242.537 472.474 242.624 473.066 242.624C473.859 242.624 474.513 242.432 475.028 242.049C475.544 241.665 475.802 241.065 475.802 240.246V238.252H475.674C475.563 238.431 475.406 238.653 475.201 238.917C475.001 239.177 474.711 239.409 474.332 239.614C473.957 239.814 473.45 239.914 472.81 239.914C472.018 239.914 471.306 239.726 470.676 239.351C470.049 238.976 469.553 238.431 469.186 237.715C468.824 236.999 468.643 236.13 468.643 235.107C468.643 234.101 468.82 233.226 469.173 232.48C469.527 231.73 470.019 231.15 470.65 230.741C471.281 230.328 472.009 230.121 472.836 230.121C473.475 230.121 473.982 230.228 474.357 230.441C474.737 230.65 475.026 230.888 475.227 231.157C475.431 231.421 475.589 231.638 475.7 231.809H475.853V230.249H477.31V240.349C477.31 241.192 477.119 241.878 476.735 242.407C476.356 242.94 475.845 243.329 475.201 243.577C474.562 243.828 473.85 243.954 473.066 243.954ZM473.015 238.559C473.62 238.559 474.131 238.42 474.549 238.143C474.967 237.866 475.284 237.468 475.502 236.948C475.719 236.428 475.827 235.806 475.827 235.082C475.827 234.374 475.721 233.75 475.508 233.209C475.295 232.668 474.979 232.244 474.562 231.937C474.144 231.63 473.629 231.476 473.015 231.476C472.376 231.476 471.843 231.638 471.417 231.962C470.995 232.286 470.678 232.721 470.465 233.266C470.256 233.812 470.151 234.417 470.151 235.082C470.151 235.763 470.258 236.366 470.471 236.891C470.688 237.41 471.008 237.82 471.43 238.118C471.856 238.412 472.384 238.559 473.015 238.559Z" fill="#627193"/>
<g filter="url(#filter3_d_205_11525)">
<circle cx="587.943" cy="540.786" r="68.427" fill="white"/>
</g>
<path d="M556.457 528.489C555.017 527.745 554.057 526.521 554.057 524.625C554.057 522.105 555.977 519.921 559.961 519.921C563.945 519.921 565.865 522.129 565.865 524.625C565.865 526.473 564.857 527.793 563.489 528.489C565.217 529.233 566.297 530.745 566.297 532.785C566.297 536.121 563.561 538.137 559.961 538.137C556.385 538.137 553.649 536.121 553.649 532.785C553.649 530.721 554.729 529.209 556.457 528.489ZM559.961 527.505C561.497 527.505 562.601 526.545 562.601 525.105C562.601 523.521 561.569 522.633 559.961 522.633C558.401 522.633 557.345 523.497 557.345 525.129C557.345 526.569 558.449 527.505 559.961 527.505ZM559.961 529.953C558.209 529.953 556.889 530.865 556.889 532.641C556.889 534.201 558.041 535.353 559.961 535.353C561.881 535.353 563.009 534.177 563.009 532.641C563.009 530.913 561.761 529.953 559.961 529.953ZM569.623 520.209H580.471V523.161H572.695V527.265C573.343 526.473 574.663 525.849 576.127 525.849C580.207 525.849 581.599 528.921 581.599 531.633C581.599 535.209 579.535 537.753 575.551 537.753C571.783 537.753 569.623 535.665 569.335 532.809H572.599C572.887 534.033 573.871 534.921 575.503 534.921C577.471 534.921 578.359 533.529 578.359 531.681C578.359 529.713 577.375 528.633 575.479 528.633C574.087 528.633 573.199 529.401 572.839 530.481H569.623V520.209ZM587.829 535.953C587.829 537.057 586.965 537.921 585.789 537.921C584.565 537.921 583.701 537.057 583.701 535.953C583.701 534.849 584.565 533.985 585.789 533.985C586.965 533.985 587.829 534.849 587.829 535.953ZM590.823 520.209H601.671V523.161H593.895V527.265C594.543 526.473 595.863 525.849 597.327 525.849C601.407 525.849 602.799 528.921 602.799 531.633C602.799 535.209 600.735 537.753 596.751 537.753C592.983 537.753 590.823 535.665 590.535 532.809H593.799C594.087 534.033 595.071 534.921 596.703 534.921C598.671 534.921 599.559 533.529 599.559 531.681C599.559 529.713 598.575 528.633 596.679 528.633C595.287 528.633 594.399 529.401 594.039 530.481H590.823V520.209ZM604.732 524.553C604.732 522.057 606.364 520.665 608.548 520.665C610.732 520.665 612.364 522.057 612.364 524.553C612.364 527.073 610.732 528.465 608.548 528.465C606.364 528.465 604.732 527.073 604.732 524.553ZM608.524 522.681C607.708 522.681 607.204 523.233 607.204 524.553C607.204 525.873 607.708 526.449 608.524 526.449C609.364 526.449 609.892 525.873 609.892 524.553C609.892 523.233 609.364 522.681 608.524 522.681ZM607.444 537.753L616.852 520.953H620.14L610.708 537.753H607.444ZM615.268 534.129C615.268 531.609 616.9 530.241 619.084 530.241C621.244 530.241 622.852 531.609 622.852 534.129C622.852 536.673 621.244 538.041 619.084 538.041C616.9 538.041 615.268 536.673 615.268 534.129ZM619.06 532.257C618.22 532.257 617.692 532.809 617.692 534.129C617.692 535.473 618.22 536.025 619.06 536.025C619.876 536.025 620.404 535.473 620.404 534.129C620.404 532.809 619.876 532.257 619.06 532.257Z" fill="#0066FC"/>
<path d="M571.845 568.685V555.594H576.269C577.296 555.594 578.135 555.78 578.787 556.151C579.443 556.517 579.929 557.013 580.245 557.64C580.56 558.266 580.718 558.965 580.718 559.736C580.718 560.508 580.56 561.209 580.245 561.839C579.934 562.47 579.452 562.973 578.8 563.348C578.148 563.719 577.313 563.904 576.294 563.904H573.124V562.498H576.243C576.946 562.498 577.511 562.376 577.937 562.133C578.363 561.891 578.672 561.562 578.864 561.149C579.06 560.731 579.158 560.261 579.158 559.736C579.158 559.212 579.06 558.744 578.864 558.33C578.672 557.917 578.361 557.593 577.931 557.359C577.5 557.12 576.929 557.001 576.218 557.001H573.431V568.685H571.845ZM585.776 568.915C585.154 568.915 584.589 568.798 584.082 568.564C583.575 568.325 583.172 567.982 582.874 567.535C582.576 567.083 582.426 566.538 582.426 565.898C582.426 565.336 582.537 564.88 582.759 564.53C582.98 564.177 583.277 563.9 583.647 563.7C584.018 563.499 584.427 563.35 584.875 563.252C585.326 563.15 585.78 563.069 586.236 563.009C586.833 562.932 587.316 562.875 587.687 562.837C588.062 562.794 588.335 562.724 588.505 562.626C588.68 562.528 588.767 562.357 588.767 562.114V562.063C588.767 561.432 588.595 560.942 588.25 560.593C587.909 560.244 587.391 560.069 586.696 560.069C585.976 560.069 585.412 560.226 585.002 560.542C584.593 560.857 584.306 561.194 584.14 561.552L582.708 561.04C582.963 560.444 583.304 559.979 583.73 559.647C584.161 559.31 584.63 559.076 585.137 558.944C585.648 558.807 586.151 558.739 586.645 558.739C586.961 558.739 587.323 558.778 587.732 558.854C588.145 558.927 588.544 559.078 588.927 559.308C589.315 559.538 589.637 559.886 589.892 560.35C590.148 560.815 590.276 561.437 590.276 562.217V568.685H588.767V567.356H588.691C588.588 567.569 588.418 567.797 588.179 568.04C587.941 568.283 587.623 568.489 587.227 568.66C586.831 568.83 586.347 568.915 585.776 568.915ZM586.006 567.56C586.603 567.56 587.105 567.443 587.515 567.209C587.928 566.974 588.239 566.672 588.448 566.301C588.661 565.93 588.767 565.54 588.767 565.131V563.751C588.703 563.827 588.563 563.898 588.346 563.962C588.132 564.021 587.885 564.075 587.604 564.121C587.327 564.164 587.056 564.202 586.792 564.236C586.532 564.266 586.321 564.292 586.159 564.313C585.767 564.364 585.401 564.447 585.06 564.562C584.723 564.673 584.451 564.842 584.242 565.067C584.037 565.289 583.935 565.592 583.935 565.975C583.935 566.499 584.129 566.896 584.517 567.164C584.909 567.428 585.405 567.56 586.006 567.56ZM592.849 568.685V558.867H594.358V568.685H592.849ZM593.616 557.231C593.322 557.231 593.069 557.131 592.856 556.93C592.647 556.73 592.542 556.489 592.542 556.208C592.542 555.927 592.647 555.686 592.856 555.486C593.069 555.285 593.322 555.185 593.616 555.185C593.91 555.185 594.162 555.285 594.371 555.486C594.584 555.686 594.69 555.927 594.69 556.208C594.69 556.489 594.584 556.73 594.371 556.93C594.162 557.131 593.91 557.231 593.616 557.231ZM600.648 568.89C599.83 568.89 599.108 568.683 598.481 568.27C597.855 567.852 597.365 567.264 597.011 566.506C596.657 565.743 596.481 564.842 596.481 563.802C596.481 562.771 596.657 561.876 597.011 561.117C597.365 560.359 597.857 559.773 598.488 559.359C599.118 558.946 599.847 558.739 600.674 558.739C601.313 558.739 601.818 558.846 602.189 559.059C602.564 559.268 602.849 559.506 603.045 559.775C603.245 560.039 603.401 560.256 603.512 560.427H603.64V555.594H605.148V568.685H603.691V567.177H603.512C603.401 567.356 603.243 567.582 603.039 567.854C602.834 568.123 602.542 568.364 602.163 568.577C601.784 568.785 601.279 568.89 600.648 568.89ZM600.853 567.535C601.458 567.535 601.969 567.377 602.387 567.062C602.804 566.742 603.122 566.301 603.339 565.739C603.557 565.172 603.665 564.518 603.665 563.776C603.665 563.043 603.559 562.402 603.346 561.852C603.133 561.298 602.817 560.868 602.4 560.561C601.982 560.25 601.466 560.094 600.853 560.094C600.213 560.094 599.681 560.258 599.255 560.587C598.833 560.91 598.515 561.351 598.302 561.91C598.093 562.464 597.989 563.086 597.989 563.776C597.989 564.475 598.096 565.11 598.309 565.681C598.526 566.248 598.846 566.7 599.267 567.036C599.694 567.369 600.222 567.535 600.853 567.535Z" fill="#627193"/>
<path d="M235.685 98.8242C235.685 97.0882 234.705 95.9962 232.521 95.9962H229.245V101.736H232.521C234.705 101.736 235.685 100.588 235.685 98.8242ZM225.325 92.7482H232.661C237.365 92.7482 239.717 95.4642 239.717 98.7402C239.717 101.12 238.401 103.528 235.265 104.368L239.941 112.292H235.405L231.093 104.676H229.245V112.292H225.325V92.7482ZM249.394 99.7482C247.518 99.7482 246.034 100.952 245.726 103.08H253.09C253.034 101.036 251.41 99.7482 249.394 99.7482ZM256.758 107.42C255.918 110.276 253.342 112.544 249.506 112.544C244.998 112.544 241.722 109.408 241.722 104.536C241.722 99.6362 244.914 96.5282 249.506 96.5282C253.986 96.5282 257.15 99.5802 257.15 104.2C257.15 104.704 257.122 105.208 257.038 105.712H245.698C245.894 108.008 247.462 109.296 249.422 109.296C251.102 109.296 252.026 108.456 252.53 107.42H256.758ZM258.471 104.48C258.471 99.6362 261.607 96.5282 265.555 96.5282C268.047 96.5282 269.755 97.7042 270.679 98.9922V96.7802H274.627V112.292H270.679V110.024C269.755 111.368 267.991 112.544 265.527 112.544C261.607 112.544 258.471 109.324 258.471 104.48ZM270.679 104.536C270.679 101.596 268.719 99.9722 266.563 99.9722C264.463 99.9722 262.475 101.54 262.475 104.48C262.475 107.42 264.463 109.1 266.563 109.1C268.719 109.1 270.679 107.476 270.679 104.536ZM277.924 112.292V91.5722H281.844V112.292H277.924ZM290.289 95.9122V92.7482H304.625V95.9122H299.417V112.292H295.497V95.9122H290.289ZM306.953 112.292V96.7802H310.873V112.292H306.953ZM308.941 94.9322C307.541 94.9322 306.533 93.9242 306.533 92.6362C306.533 91.3482 307.541 90.3402 308.941 90.3402C310.313 90.3402 311.349 91.3482 311.349 92.6362C311.349 93.9242 310.313 94.9322 308.941 94.9322ZM335.914 112.292V103.724C335.914 101.26 334.542 99.9722 332.47 99.9722C330.37 99.9722 328.998 101.26 328.998 103.724V112.292H325.078V103.724C325.078 101.26 323.706 99.9722 321.634 99.9722C319.506 99.9722 318.134 101.26 318.134 103.724V112.292H314.214V96.7802H318.134V98.6562C319.114 97.3682 320.766 96.5562 322.698 96.5562C325.106 96.5562 327.094 97.5922 328.158 99.5242C329.166 97.7602 331.21 96.5562 333.478 96.5562C337.202 96.5562 339.834 98.9082 339.834 103.192V112.292H335.914ZM349.686 99.7482C347.81 99.7482 346.326 100.952 346.018 103.08H353.382C353.326 101.036 351.702 99.7482 349.686 99.7482ZM357.05 107.42C356.21 110.276 353.634 112.544 349.798 112.544C345.29 112.544 342.014 109.408 342.014 104.536C342.014 99.6362 345.206 96.5282 349.798 96.5282C354.278 96.5282 357.442 99.5802 357.442 104.2C357.442 104.704 357.414 105.208 357.33 105.712H345.99C346.186 108.008 347.754 109.296 349.714 109.296C351.394 109.296 352.318 108.456 352.822 107.42H357.05ZM365.911 112.292V92.7482H370.363L376.579 107.28L382.795 92.7482H387.219V112.292H383.299V99.5802L378.063 112.292H375.095L369.831 99.5802V112.292H365.911ZM389.554 104.48C389.554 99.6362 392.69 96.5282 396.638 96.5282C399.13 96.5282 400.838 97.7042 401.762 98.9922V96.7802H405.71V112.292H401.762V110.024C400.838 111.368 399.074 112.544 396.61 112.544C392.69 112.544 389.554 109.324 389.554 104.48ZM401.762 104.536C401.762 101.596 399.802 99.9722 397.646 99.9722C395.546 99.9722 393.558 101.54 393.558 104.48C393.558 107.42 395.546 109.1 397.646 109.1C399.802 109.1 401.762 107.476 401.762 104.536ZM419.871 112.292V103.724C419.871 101.232 418.499 99.8882 416.427 99.8882C414.299 99.8882 412.927 101.232 412.927 103.724V112.292H409.007V96.7802H412.927V98.7122C413.935 97.3962 415.615 96.5562 417.603 96.5562C421.215 96.5562 423.791 98.9082 423.791 103.192V112.292H419.871ZM425.979 104.48C425.979 99.6362 429.115 96.5282 433.063 96.5282C435.555 96.5282 437.263 97.7042 438.187 98.9922V96.7802H442.135V112.292H438.187V110.024C437.263 111.368 435.499 112.544 433.035 112.544C429.115 112.544 425.979 109.324 425.979 104.48ZM438.187 104.536C438.187 101.596 436.227 99.9722 434.071 99.9722C431.971 99.9722 429.983 101.54 429.983 104.48C429.983 107.42 431.971 109.1 434.071 109.1C436.227 109.1 438.187 107.476 438.187 104.536ZM444.423 104.48C444.423 99.6362 447.559 96.5282 451.507 96.5282C453.943 96.5282 455.707 97.6482 456.631 98.9922V96.7802H460.579V112.404C460.579 116.604 458.003 119.936 452.907 119.936C448.539 119.936 445.487 117.752 445.095 114.196H448.987C449.379 115.596 450.835 116.52 452.795 116.52C454.951 116.52 456.631 115.288 456.631 112.404V109.996C455.707 111.34 453.943 112.544 451.507 112.544C447.559 112.544 444.423 109.324 444.423 104.48ZM456.631 104.536C456.631 101.596 454.671 99.9722 452.515 99.9722C450.415 99.9722 448.427 101.54 448.427 104.48C448.427 107.42 450.415 109.1 452.515 109.1C454.671 109.1 456.631 107.476 456.631 104.536ZM470.54 99.7482C468.664 99.7482 467.18 100.952 466.872 103.08H474.236C474.18 101.036 472.556 99.7482 470.54 99.7482ZM477.904 107.42C477.064 110.276 474.488 112.544 470.652 112.544C466.144 112.544 462.868 109.408 462.868 104.536C462.868 99.6362 466.06 96.5282 470.652 96.5282C475.132 96.5282 478.296 99.5802 478.296 104.2C478.296 104.704 478.268 105.208 478.184 105.712H466.844C467.04 108.008 468.608 109.296 470.568 109.296C472.248 109.296 473.172 108.456 473.676 107.42H477.904ZM484.545 104.564V112.292H480.625V96.7802H484.545V99.1882C485.525 97.5922 487.149 96.5562 489.305 96.5562V100.672H488.269C485.945 100.672 484.545 101.568 484.545 104.564Z" fill="#111827"/>
<g filter="url(#filter4_d_205_11525)">
<rect x="130" y="321" width="340" height="225.839" rx="12.4088" fill="white"/>
</g>
<path d="M166.947 368.336L165.919 365.365H159.71L158.682 368.336H155.399L161.005 352.723H164.646L170.252 368.336H166.947ZM165.07 362.863L162.815 356.341L160.559 362.863H165.07ZM172.125 368.336V351.807H175.252V368.336H172.125ZM178.118 368.336V351.807H181.245V368.336H178.118ZM184.156 361.68V359.044H193.626V361.68H184.156ZM196.909 368.336V355.962H200.036V368.336H196.909ZM198.495 354.488C197.378 354.488 196.574 353.683 196.574 352.656C196.574 351.629 197.378 350.824 198.495 350.824C199.59 350.824 200.416 351.629 200.416 352.656C200.416 353.683 199.59 354.488 198.495 354.488ZM211.569 368.336V361.501C211.569 359.513 210.474 358.441 208.822 358.441C207.124 358.441 206.03 359.513 206.03 361.501V368.336H202.903V355.962H206.03V357.503C206.834 356.453 208.174 355.783 209.76 355.783C212.641 355.783 214.696 357.659 214.696 361.077V368.336H211.569ZM217.491 361.68V359.044H226.961V361.68H217.491ZM242.194 362.149C242.194 366.035 239.335 368.537 235.739 368.537C232.166 368.537 229.463 366.035 229.463 362.149C229.463 358.24 232.255 355.761 235.829 355.761C239.402 355.761 242.194 358.24 242.194 362.149ZM232.635 362.149C232.635 364.606 234.064 365.812 235.739 365.812C237.392 365.812 238.978 364.606 238.978 362.149C238.978 359.669 237.437 358.486 235.784 358.486C234.131 358.486 232.635 359.669 232.635 362.149ZM252.931 368.336V361.501C252.931 359.513 251.837 358.441 250.184 358.441C248.486 358.441 247.392 359.513 247.392 361.501V368.336H244.265V355.962H247.392V357.503C248.196 356.453 249.536 355.783 251.122 355.783C254.003 355.783 256.058 357.659 256.058 361.077V368.336H252.931ZM264.124 358.329C262.628 358.329 261.444 359.29 261.198 360.987H267.073C267.028 359.357 265.732 358.329 264.124 358.329ZM269.998 364.449C269.328 366.728 267.274 368.537 264.214 368.537C260.617 368.537 258.004 366.035 258.004 362.149C258.004 358.24 260.55 355.761 264.214 355.761C267.787 355.761 270.311 358.195 270.311 361.881C270.311 362.283 270.289 362.685 270.222 363.087H261.176C261.332 364.918 262.583 365.946 264.147 365.946C265.487 365.946 266.224 365.276 266.626 364.449H269.998ZM277.96 364.494V358.53H276.486V355.962H277.96V352.902H281.11V355.962H283.879V358.53H281.11V364.516C281.11 365.343 281.445 365.7 282.428 365.7H283.879V368.336H281.914C279.546 368.336 277.96 367.331 277.96 364.494ZM297.855 362.149C297.855 366.035 294.996 368.537 291.4 368.537C287.826 368.537 285.123 366.035 285.123 362.149C285.123 358.24 287.915 355.761 291.489 355.761C295.063 355.761 297.855 358.24 297.855 362.149ZM288.295 362.149C288.295 364.606 289.725 365.812 291.4 365.812C293.053 365.812 294.639 364.606 294.639 362.149C294.639 359.669 293.097 358.486 291.444 358.486C289.792 358.486 288.295 359.669 288.295 362.149ZM311.875 362.149C311.875 366.035 309.016 368.537 305.42 368.537C301.846 368.537 299.144 366.035 299.144 362.149C299.144 358.24 301.935 355.761 305.509 355.761C309.083 355.761 311.875 358.24 311.875 362.149ZM302.315 362.149C302.315 364.606 303.745 365.812 305.42 365.812C307.073 365.812 308.659 364.606 308.659 362.149C308.659 359.669 307.117 358.486 305.465 358.486C303.812 358.486 302.315 359.669 302.315 362.149ZM313.945 368.336V351.807H317.072V368.336H313.945ZM319.938 368.336V351.807H323.065V361.211L327.22 355.962H331.285L325.835 362.171L331.33 368.336H327.265L323.065 363.064V368.336H319.938ZM332.759 368.336V355.962H335.886V368.336H332.759ZM334.345 354.488C333.228 354.488 332.424 353.683 332.424 352.656C332.424 351.629 333.228 350.824 334.345 350.824C335.439 350.824 336.266 351.629 336.266 352.656C336.266 353.683 335.439 354.488 334.345 354.488ZM339.243 364.494V358.53H337.769V355.962H339.243V352.902H342.393V355.962H345.162V358.53H342.393V364.516C342.393 365.343 342.728 365.7 343.711 365.7H345.162V368.336H343.197C340.829 368.336 339.243 367.331 339.243 364.494Z" fill="#111827"/>
<path opacity="0.8" d="M209.724 407.031C209.724 406.776 209.684 406.55 209.605 406.352C209.531 406.154 209.399 405.973 209.206 405.809C209.014 405.645 208.743 405.487 208.392 405.334C208.047 405.176 207.606 405.015 207.069 404.851C206.481 404.67 205.938 404.469 205.44 404.248C204.948 404.022 204.518 403.762 204.151 403.468C203.783 403.168 203.498 402.826 203.294 402.442C203.09 402.051 202.989 401.602 202.989 401.093C202.989 400.59 203.093 400.132 203.302 399.719C203.517 399.306 203.82 398.95 204.21 398.65C204.606 398.345 205.072 398.11 205.61 397.946C206.147 397.776 206.741 397.691 207.391 397.691C208.307 397.691 209.096 397.861 209.758 398.2C210.425 398.54 210.937 398.995 211.293 399.566C211.655 400.137 211.836 400.768 211.836 401.458H209.724C209.724 401.051 209.636 400.691 209.461 400.38C209.291 400.064 209.031 399.815 208.68 399.634C208.335 399.453 207.897 399.362 207.366 399.362C206.862 399.362 206.444 399.439 206.11 399.592C205.777 399.744 205.528 399.951 205.364 400.211C205.2 400.471 205.118 400.765 205.118 401.093C205.118 401.325 205.171 401.537 205.279 401.729C205.386 401.916 205.55 402.091 205.771 402.255C205.991 402.413 206.269 402.563 206.602 402.705C206.936 402.846 207.329 402.982 207.781 403.112C208.466 403.315 209.062 403.542 209.571 403.79C210.08 404.034 210.504 404.311 210.843 404.622C211.183 404.933 211.437 405.286 211.607 405.682C211.777 406.072 211.861 406.516 211.861 407.014C211.861 407.534 211.757 408.003 211.548 408.422C211.338 408.835 211.039 409.188 210.648 409.482C210.264 409.771 209.8 409.994 209.257 410.152C208.72 410.305 208.121 410.381 207.459 410.381C206.865 410.381 206.28 410.302 205.703 410.144C205.132 409.985 204.612 409.745 204.142 409.423C203.673 409.095 203.3 408.688 203.023 408.201C202.745 407.709 202.607 407.135 202.607 406.479H204.736C204.736 406.881 204.804 407.223 204.94 407.506C205.081 407.788 205.276 408.02 205.525 408.201C205.774 408.377 206.062 408.507 206.39 408.592C206.724 408.676 207.08 408.719 207.459 408.719C207.957 408.719 208.372 408.648 208.706 408.507C209.045 408.365 209.3 408.167 209.469 407.913C209.639 407.658 209.724 407.364 209.724 407.031ZM212.977 405.724V405.529C212.977 404.868 213.073 404.254 213.265 403.689C213.458 403.117 213.735 402.623 214.097 402.204C214.464 401.78 214.911 401.452 215.437 401.22C215.968 400.983 216.568 400.864 217.235 400.864C217.908 400.864 218.508 400.983 219.034 401.22C219.565 401.452 220.015 401.78 220.382 402.204C220.75 402.623 221.03 403.117 221.222 403.689C221.414 404.254 221.51 404.868 221.51 405.529V405.724C221.51 406.386 221.414 407 221.222 407.565C221.03 408.131 220.75 408.625 220.382 409.05C220.015 409.468 219.568 409.796 219.042 410.034C218.516 410.265 217.919 410.381 217.252 410.381C216.579 410.381 215.977 410.265 215.445 410.034C214.919 409.796 214.473 409.468 214.105 409.05C213.738 408.625 213.458 408.131 213.265 407.565C213.073 407 212.977 406.386 212.977 405.724ZM215.021 405.529V405.724C215.021 406.137 215.064 406.527 215.149 406.895C215.233 407.263 215.366 407.585 215.547 407.862C215.728 408.139 215.96 408.357 216.243 408.515C216.526 408.674 216.862 408.753 217.252 408.753C217.631 408.753 217.959 408.674 218.236 408.515C218.519 408.357 218.751 408.139 218.932 407.862C219.113 407.585 219.246 407.263 219.33 406.895C219.421 406.527 219.466 406.137 219.466 405.724V405.529C219.466 405.122 219.421 404.738 219.33 404.376C219.246 404.008 219.11 403.683 218.923 403.4C218.742 403.117 218.51 402.897 218.228 402.739C217.951 402.575 217.62 402.493 217.235 402.493C216.851 402.493 216.517 402.575 216.234 402.739C215.957 402.897 215.728 403.117 215.547 403.4C215.366 403.683 215.233 404.008 215.149 404.376C215.064 404.738 215.021 405.122 215.021 405.529ZM225.815 410.212H223.771V400.151C223.771 399.467 223.898 398.893 224.153 398.429C224.413 397.96 224.783 397.607 225.264 397.369C225.745 397.126 226.313 397.004 226.969 397.004C227.173 397.004 227.373 397.018 227.571 397.047C227.769 397.069 227.962 397.106 228.148 397.157L228.097 398.735C227.984 398.707 227.86 398.687 227.724 398.675C227.594 398.664 227.453 398.658 227.3 398.658C226.989 398.658 226.72 398.718 226.494 398.837C226.274 398.95 226.104 399.116 225.985 399.337C225.872 399.558 225.815 399.829 225.815 400.151V410.212ZM227.707 401.034V402.526H222.363V401.034H227.707ZM233.225 401.034V402.526H228.051V401.034H233.225ZM229.544 398.786H231.588V407.675C231.588 407.958 231.628 408.176 231.707 408.329C231.792 408.476 231.908 408.575 232.055 408.625C232.202 408.676 232.374 408.702 232.572 408.702C232.713 408.702 232.849 408.693 232.979 408.676C233.109 408.659 233.214 408.642 233.293 408.625L233.302 410.186C233.132 410.237 232.934 410.282 232.708 410.322C232.487 410.362 232.233 410.381 231.944 410.381C231.475 410.381 231.059 410.299 230.697 410.135C230.335 409.966 230.053 409.691 229.849 409.313C229.646 408.934 229.544 408.43 229.544 407.803V398.786ZM237.123 408.176L239.244 401.034H240.55L240.194 403.171L238.056 410.212H236.886L237.123 408.176ZM235.876 401.034L237.53 408.21L237.666 410.212H236.36L233.874 401.034H235.876ZM242.535 408.125L244.138 401.034H246.132L243.655 410.212H242.348L242.535 408.125ZM240.771 401.034L242.866 408.091L243.129 410.212H241.958L239.795 403.163L239.439 401.034H240.771ZM252.523 408.371V403.994C252.523 403.666 252.464 403.383 252.345 403.146C252.226 402.908 252.045 402.724 251.802 402.594C251.565 402.464 251.265 402.399 250.903 402.399C250.569 402.399 250.281 402.456 250.038 402.569C249.795 402.682 249.605 402.835 249.47 403.027C249.334 403.219 249.266 403.437 249.266 403.68H247.23C247.23 403.318 247.318 402.968 247.493 402.628C247.668 402.289 247.923 401.986 248.257 401.721C248.59 401.455 248.989 401.246 249.453 401.093C249.916 400.94 250.437 400.864 251.013 400.864C251.703 400.864 252.314 400.98 252.846 401.212C253.383 401.444 253.804 401.794 254.11 402.264C254.421 402.727 254.576 403.31 254.576 404.011V408.091C254.576 408.51 254.604 408.886 254.661 409.219C254.723 409.547 254.811 409.833 254.924 410.076V410.212H252.829C252.733 409.991 252.656 409.711 252.6 409.372C252.549 409.027 252.523 408.693 252.523 408.371ZM252.82 404.63L252.837 405.894H251.37C250.991 405.894 250.657 405.931 250.369 406.004C250.08 406.072 249.84 406.174 249.648 406.31C249.455 406.445 249.311 406.609 249.215 406.802C249.119 406.994 249.071 407.212 249.071 407.455C249.071 407.698 249.127 407.921 249.241 408.125C249.354 408.323 249.518 408.478 249.733 408.592C249.953 408.705 250.219 408.761 250.53 408.761C250.948 408.761 251.313 408.676 251.624 408.507C251.941 408.331 252.19 408.119 252.371 407.87C252.552 407.616 252.648 407.376 252.659 407.149L253.321 408.057C253.253 408.289 253.137 408.538 252.973 408.804C252.809 409.069 252.594 409.324 252.328 409.567C252.068 409.805 251.754 410 251.387 410.152C251.025 410.305 250.606 410.381 250.131 410.381C249.532 410.381 248.997 410.263 248.528 410.025C248.059 409.782 247.691 409.457 247.425 409.05C247.16 408.637 247.027 408.17 247.027 407.65C247.027 407.164 247.117 406.734 247.298 406.361C247.485 405.982 247.756 405.665 248.112 405.411C248.474 405.156 248.915 404.964 249.436 404.834C249.956 404.698 250.55 404.63 251.217 404.63H252.82ZM258.593 402.781V410.212H256.548V401.034H258.499L258.593 402.781ZM261.4 400.974L261.383 402.874C261.259 402.852 261.123 402.835 260.976 402.823C260.835 402.812 260.694 402.806 260.552 402.806C260.202 402.806 259.893 402.857 259.628 402.959C259.362 403.055 259.138 403.197 258.957 403.383C258.782 403.564 258.646 403.785 258.55 404.045C258.454 404.305 258.398 404.596 258.381 404.919L257.914 404.952C257.914 404.376 257.971 403.841 258.084 403.349C258.197 402.857 258.367 402.425 258.593 402.051C258.825 401.678 259.113 401.387 259.458 401.178C259.809 400.969 260.213 400.864 260.671 400.864C260.795 400.864 260.928 400.875 261.07 400.898C261.217 400.92 261.327 400.946 261.4 400.974ZM266.384 410.381C265.706 410.381 265.092 410.271 264.543 410.051C264.001 409.824 263.537 409.51 263.152 409.109C262.773 408.707 262.482 408.235 262.279 407.692C262.075 407.149 261.973 406.564 261.973 405.936V405.597C261.973 404.879 262.078 404.229 262.287 403.646C262.496 403.064 262.788 402.566 263.161 402.153C263.534 401.735 263.975 401.415 264.484 401.195C264.993 400.974 265.544 400.864 266.138 400.864C266.794 400.864 267.368 400.974 267.86 401.195C268.352 401.415 268.759 401.726 269.082 402.128C269.41 402.524 269.653 402.996 269.811 403.544C269.975 404.093 270.057 404.698 270.057 405.36V406.233H262.966V404.766H268.038V404.605C268.027 404.237 267.953 403.892 267.818 403.57C267.688 403.247 267.487 402.987 267.215 402.789C266.944 402.592 266.582 402.493 266.13 402.493C265.79 402.493 265.488 402.566 265.222 402.713C264.962 402.854 264.744 403.061 264.569 403.332C264.394 403.604 264.258 403.932 264.162 404.316C264.071 404.695 264.026 405.122 264.026 405.597V405.936C264.026 406.338 264.08 406.711 264.187 407.056C264.3 407.395 264.464 407.692 264.679 407.947C264.894 408.201 265.154 408.402 265.46 408.549C265.765 408.69 266.113 408.761 266.503 408.761C266.995 408.761 267.433 408.662 267.818 408.464C268.202 408.266 268.536 407.986 268.819 407.624L269.896 408.668C269.698 408.956 269.441 409.233 269.124 409.499C268.807 409.759 268.42 409.971 267.962 410.135C267.509 410.299 266.984 410.381 266.384 410.381Z" fill="#111827"/>
<path d="M422.655 406.844C422.655 407.613 422.477 408.261 422.12 408.787C421.764 409.313 421.278 409.711 420.661 409.983C420.051 410.248 419.361 410.381 418.592 410.381C417.823 410.381 417.13 410.248 416.513 409.983C415.897 409.711 415.411 409.313 415.054 408.787C414.698 408.261 414.52 407.613 414.52 406.844C414.52 406.335 414.619 405.874 414.817 405.461C415.015 405.043 415.295 404.684 415.657 404.384C416.024 404.079 416.454 403.844 416.946 403.68C417.444 403.516 417.987 403.434 418.575 403.434C419.355 403.434 420.053 403.578 420.67 403.867C421.286 404.155 421.77 404.554 422.12 405.063C422.477 405.572 422.655 406.165 422.655 406.844ZM420.602 406.742C420.602 406.329 420.517 405.968 420.348 405.657C420.178 405.346 419.94 405.105 419.635 404.936C419.33 404.766 418.976 404.681 418.575 404.681C418.168 404.681 417.814 404.766 417.514 404.936C417.215 405.105 416.98 405.346 416.81 405.657C416.646 405.968 416.564 406.329 416.564 406.742C416.564 407.161 416.646 407.523 416.81 407.828C416.974 408.128 417.209 408.357 417.514 408.515C417.82 408.674 418.179 408.753 418.592 408.753C419.004 408.753 419.361 408.674 419.66 408.515C419.96 408.357 420.192 408.128 420.356 407.828C420.52 407.523 420.602 407.161 420.602 406.742ZM422.375 401.11C422.375 401.726 422.211 402.275 421.883 402.756C421.561 403.236 421.114 403.615 420.543 403.892C419.971 404.164 419.321 404.299 418.592 404.299C417.856 404.299 417.2 404.164 416.624 403.892C416.053 403.615 415.603 403.236 415.275 402.756C414.953 402.275 414.791 401.726 414.791 401.11C414.791 400.375 414.953 399.756 415.275 399.252C415.603 398.743 416.053 398.356 416.624 398.09C417.195 397.824 417.848 397.691 418.583 397.691C419.318 397.691 419.971 397.824 420.543 398.09C421.114 398.356 421.561 398.743 421.883 399.252C422.211 399.756 422.375 400.375 422.375 401.11ZM420.331 401.178C420.331 400.81 420.257 400.488 420.11 400.211C419.969 399.928 419.768 399.707 419.508 399.549C419.248 399.391 418.939 399.312 418.583 399.312C418.227 399.312 417.919 399.388 417.659 399.541C417.398 399.693 417.198 399.908 417.056 400.185C416.915 400.462 416.844 400.793 416.844 401.178C416.844 401.557 416.915 401.887 417.056 402.17C417.198 402.447 417.398 402.665 417.659 402.823C417.924 402.982 418.235 403.061 418.592 403.061C418.948 403.061 419.256 402.982 419.516 402.823C419.776 402.665 419.977 402.447 420.118 402.17C420.26 401.887 420.331 401.557 420.331 401.178ZM426.68 403.112H427.901C428.376 403.112 428.769 403.03 429.08 402.866C429.397 402.702 429.632 402.476 429.785 402.187C429.937 401.899 430.014 401.568 430.014 401.195C430.014 400.805 429.943 400.471 429.801 400.194C429.666 399.911 429.457 399.693 429.174 399.541C428.897 399.388 428.543 399.312 428.113 399.312C427.752 399.312 427.424 399.385 427.129 399.532C426.841 399.674 426.612 399.877 426.442 400.143C426.273 400.403 426.188 400.714 426.188 401.076H424.135C424.135 400.42 424.308 399.838 424.653 399.329C424.998 398.82 425.467 398.421 426.061 398.133C426.66 397.838 427.333 397.691 428.08 397.691C428.877 397.691 429.572 397.824 430.166 398.09C430.766 398.35 431.232 398.74 431.566 399.261C431.9 399.781 432.066 400.426 432.066 401.195C432.066 401.545 431.984 401.902 431.82 402.264C431.656 402.625 431.413 402.956 431.091 403.256C430.768 403.55 430.367 403.79 429.886 403.977C429.406 404.158 428.849 404.248 428.215 404.248H426.68V403.112ZM426.68 404.706V403.587H428.215C428.939 403.587 429.555 403.672 430.064 403.841C430.579 404.011 430.998 404.246 431.32 404.545C431.642 404.839 431.877 405.176 432.024 405.555C432.177 405.934 432.253 406.335 432.253 406.759C432.253 407.336 432.148 407.851 431.939 408.303C431.736 408.75 431.444 409.129 431.065 409.44C430.687 409.751 430.243 409.985 429.734 410.144C429.23 410.302 428.682 410.381 428.088 410.381C427.556 410.381 427.047 410.308 426.561 410.161C426.075 410.014 425.639 409.796 425.255 409.508C424.87 409.214 424.565 408.849 424.339 408.413C424.118 407.972 424.008 407.463 424.008 406.887H426.052C426.052 407.254 426.137 407.579 426.307 407.862C426.482 408.139 426.725 408.357 427.036 408.515C427.353 408.674 427.715 408.753 428.122 408.753C428.552 408.753 428.922 408.676 429.233 408.524C429.544 408.371 429.782 408.145 429.946 407.845C430.115 407.545 430.2 407.183 430.2 406.759C430.2 406.279 430.107 405.888 429.92 405.589C429.734 405.289 429.468 405.068 429.123 404.927C428.778 404.78 428.371 404.706 427.901 404.706H426.68ZM435.625 408.6H435.795C436.575 408.6 437.225 408.498 437.746 408.295C438.271 408.085 438.69 407.797 439.001 407.429C439.312 407.062 439.535 406.629 439.671 406.132C439.807 405.634 439.875 405.094 439.875 404.511V402.382C439.875 401.879 439.821 401.438 439.714 401.059C439.612 400.674 439.465 400.355 439.272 400.1C439.086 399.84 438.868 399.645 438.619 399.515C438.376 399.385 438.113 399.32 437.83 399.32C437.519 399.32 437.239 399.391 436.991 399.532C436.747 399.668 436.541 399.857 436.371 400.1C436.207 400.338 436.08 400.618 435.99 400.94C435.905 401.257 435.862 401.596 435.862 401.958C435.862 402.297 435.902 402.625 435.981 402.942C436.066 403.253 436.19 403.53 436.354 403.773C436.518 404.017 436.725 404.209 436.974 404.35C437.222 404.492 437.514 404.562 437.847 404.562C438.164 404.562 438.455 404.503 438.721 404.384C438.987 404.26 439.219 404.093 439.417 403.884C439.615 403.674 439.77 403.44 439.883 403.18C439.996 402.92 440.058 402.654 440.07 402.382L440.85 402.62C440.85 403.05 440.76 403.474 440.579 403.892C440.403 404.305 440.157 404.684 439.841 405.029C439.53 405.368 439.165 405.64 438.747 405.843C438.334 406.047 437.884 406.149 437.398 406.149C436.81 406.149 436.289 406.038 435.837 405.818C435.39 405.592 435.017 405.286 434.717 404.902C434.423 404.517 434.203 404.076 434.056 403.578C433.909 403.081 433.835 402.558 433.835 402.009C433.835 401.415 433.926 400.858 434.107 400.338C434.288 399.818 434.55 399.36 434.895 398.964C435.24 398.562 435.659 398.251 436.151 398.031C436.648 397.805 437.211 397.691 437.839 397.691C438.506 397.691 439.091 397.821 439.595 398.082C440.098 398.342 440.522 398.701 440.867 399.159C441.212 399.617 441.472 400.149 441.648 400.754C441.823 401.359 441.91 402.009 441.91 402.705V403.426C441.91 404.155 441.845 404.859 441.715 405.538C441.585 406.211 441.373 406.836 441.079 407.412C440.791 407.984 440.409 408.487 439.934 408.922C439.465 409.352 438.888 409.689 438.204 409.932C437.525 410.169 436.728 410.288 435.812 410.288H435.625V408.6Z" fill="#627193"/>
<g filter="url(#filter5_d_205_11525)">
<rect x="154.816" y="386.767" width="34.7445" height="34.7445" rx="4.9635" fill="white"/>
</g>
<g clip-path="url(#clip0_205_11525)">
<path d="M180.308 397.53H164.068C163.756 397.53 163.502 397.783 163.502 398.096V400.917H180.874V398.096C180.874 397.783 180.621 397.53 180.308 397.53ZM174.437 399.978C174.021 399.978 173.682 399.64 173.682 399.223C173.682 398.807 174.021 398.468 174.437 398.468C174.854 398.468 175.192 398.807 175.192 399.223C175.192 399.64 174.854 399.978 174.437 399.978ZM176.495 399.978C176.078 399.978 175.739 399.64 175.739 399.223C175.739 398.807 176.078 398.468 176.495 398.468C176.911 398.468 177.25 398.807 177.25 399.223C177.25 399.64 176.911 399.978 176.495 399.978ZM178.552 399.978C178.136 399.978 177.797 399.64 177.797 399.223C177.797 398.807 178.136 398.468 178.552 398.468C178.969 398.468 179.308 398.807 179.308 399.223C179.308 399.64 178.969 399.978 178.552 399.978Z" fill="#0066FC"/>
<path d="M163.502 402.049V410.181C163.502 410.494 163.756 410.748 164.068 410.748H180.308C180.621 410.748 180.874 410.494 180.874 410.181V402.049H163.502ZM171.491 406.83L169.636 408.408C169.398 408.611 169.041 408.582 168.838 408.343C168.635 408.105 168.664 407.748 168.902 407.545L170.25 406.398L168.902 405.252C168.664 405.049 168.635 404.692 168.838 404.453C169.041 404.215 169.398 404.186 169.636 404.389L171.491 405.967C171.756 406.193 171.756 406.604 171.491 406.83ZM175.107 408.543H172.869C172.556 408.543 172.302 408.289 172.302 407.976C172.302 407.663 172.556 407.41 172.869 407.41H175.107C175.42 407.41 175.673 407.663 175.673 407.976C175.673 408.289 175.42 408.543 175.107 408.543Z" fill="#0066FC"/>
</g>
<path opacity="0.8" d="M206.814 459.956H204.176L204.193 458.268H206.814C207.578 458.268 208.217 458.101 208.731 457.768C209.252 457.434 209.642 456.956 209.902 456.334C210.168 455.712 210.301 454.971 210.301 454.112V453.442C210.301 452.774 210.224 452.183 210.072 451.669C209.925 451.154 209.704 450.722 209.41 450.371C209.121 450.02 208.765 449.755 208.341 449.574C207.923 449.393 207.439 449.302 206.891 449.302H204.125V447.606H206.891C207.711 447.606 208.46 447.744 209.138 448.021C209.817 448.293 210.402 448.686 210.894 449.2C211.392 449.715 211.774 450.331 212.039 451.05C212.305 451.768 212.438 452.571 212.438 453.459V454.112C212.438 455 212.305 455.803 212.039 456.521C211.774 457.239 211.392 457.855 210.894 458.37C210.397 458.879 209.803 459.272 209.113 459.549C208.429 459.821 207.662 459.956 206.814 459.956ZM205.355 447.606V459.956H203.226V447.606H205.355ZM216.387 450.778V459.956H214.334V450.778H216.387ZM214.198 448.369C214.198 448.058 214.3 447.801 214.504 447.597C214.713 447.388 215.001 447.283 215.369 447.283C215.731 447.283 216.017 447.388 216.226 447.597C216.435 447.801 216.54 448.058 216.54 448.369C216.54 448.675 216.435 448.929 216.226 449.133C216.017 449.336 215.731 449.438 215.369 449.438C215.001 449.438 214.713 449.336 214.504 449.133C214.3 448.929 214.198 448.675 214.198 448.369ZM224.331 450.778H226.189V459.702C226.189 460.527 226.013 461.229 225.663 461.805C225.312 462.382 224.823 462.821 224.195 463.12C223.568 463.426 222.841 463.578 222.015 463.578C221.665 463.578 221.274 463.527 220.845 463.426C220.421 463.324 220.008 463.16 219.606 462.934C219.21 462.713 218.88 462.422 218.614 462.06L219.572 460.855C219.9 461.246 220.262 461.531 220.658 461.712C221.054 461.893 221.47 461.984 221.905 461.984C222.374 461.984 222.773 461.896 223.101 461.721C223.435 461.551 223.692 461.299 223.873 460.966C224.054 460.632 224.144 460.225 224.144 459.744V452.856L224.331 450.778ZM218.096 455.469V455.291C218.096 454.595 218.181 453.962 218.351 453.391C218.52 452.814 218.764 452.319 219.08 451.906C219.397 451.488 219.782 451.168 220.234 450.948C220.686 450.722 221.198 450.609 221.769 450.609C222.363 450.609 222.869 450.716 223.288 450.931C223.712 451.146 224.065 451.454 224.348 451.855C224.631 452.251 224.851 452.726 225.01 453.281C225.174 453.829 225.295 454.44 225.374 455.113V455.681C225.301 456.337 225.176 456.937 225.001 457.479C224.826 458.022 224.594 458.492 224.306 458.887C224.017 459.283 223.661 459.589 223.237 459.804C222.818 460.019 222.324 460.126 221.752 460.126C221.192 460.126 220.686 460.01 220.234 459.778C219.787 459.546 219.403 459.221 219.08 458.803C218.764 458.384 218.52 457.892 218.351 457.327C218.181 456.756 218.096 456.136 218.096 455.469ZM220.141 455.291V455.469C220.141 455.888 220.18 456.278 220.259 456.64C220.344 457.002 220.471 457.321 220.641 457.598C220.816 457.87 221.037 458.084 221.303 458.243C221.574 458.396 221.894 458.472 222.261 458.472C222.742 458.472 223.135 458.37 223.44 458.166C223.751 457.963 223.989 457.689 224.153 457.344C224.323 456.993 224.441 456.603 224.509 456.173V454.638C224.475 454.304 224.405 453.993 224.297 453.705C224.195 453.416 224.057 453.165 223.881 452.95C223.706 452.729 223.486 452.56 223.22 452.441C222.954 452.316 222.64 452.254 222.278 452.254C221.911 452.254 221.591 452.333 221.32 452.492C221.048 452.65 220.825 452.868 220.65 453.145C220.48 453.422 220.353 453.744 220.268 454.112C220.183 454.479 220.141 454.872 220.141 455.291ZM230.324 450.778V459.956H228.271V450.778H230.324ZM228.136 448.369C228.136 448.058 228.237 447.801 228.441 447.597C228.65 447.388 228.939 447.283 229.306 447.283C229.668 447.283 229.954 447.388 230.163 447.597C230.372 447.801 230.477 448.058 230.477 448.369C230.477 448.675 230.372 448.929 230.163 449.133C229.954 449.336 229.668 449.438 229.306 449.438C228.939 449.438 228.65 449.336 228.441 449.133C228.237 448.929 228.136 448.675 228.136 448.369ZM236.597 450.778V452.271H231.423V450.778H236.597ZM232.916 448.53H234.96V457.42C234.96 457.703 235 457.92 235.079 458.073C235.164 458.22 235.28 458.319 235.427 458.37C235.574 458.421 235.746 458.446 235.944 458.446C236.085 458.446 236.221 458.438 236.351 458.421C236.481 458.404 236.586 458.387 236.665 458.37L236.673 459.931C236.504 459.982 236.306 460.027 236.08 460.067C235.859 460.106 235.605 460.126 235.316 460.126C234.847 460.126 234.431 460.044 234.069 459.88C233.707 459.71 233.425 459.436 233.221 459.057C233.018 458.678 232.916 458.175 232.916 457.547V448.53ZM243.176 458.116V453.739C243.176 453.411 243.116 453.128 242.997 452.89C242.879 452.653 242.698 452.469 242.455 452.339C242.217 452.209 241.917 452.144 241.555 452.144C241.222 452.144 240.933 452.2 240.69 452.314C240.447 452.427 240.258 452.579 240.122 452.772C239.986 452.964 239.918 453.182 239.918 453.425H237.882C237.882 453.063 237.97 452.712 238.145 452.373C238.321 452.034 238.575 451.731 238.909 451.465C239.242 451.199 239.641 450.99 240.105 450.838C240.569 450.685 241.089 450.609 241.666 450.609C242.356 450.609 242.966 450.724 243.498 450.956C244.035 451.188 244.456 451.539 244.762 452.008C245.073 452.472 245.228 453.054 245.228 453.756V457.836C245.228 458.254 245.257 458.63 245.313 458.964C245.375 459.292 245.463 459.577 245.576 459.821V459.956H243.481C243.385 459.736 243.308 459.456 243.252 459.117C243.201 458.772 243.176 458.438 243.176 458.116ZM243.472 454.375L243.489 455.639H242.022C241.643 455.639 241.309 455.675 241.021 455.749C240.733 455.817 240.492 455.919 240.3 456.054C240.108 456.19 239.963 456.354 239.867 456.546C239.771 456.739 239.723 456.956 239.723 457.199C239.723 457.443 239.78 457.666 239.893 457.87C240.006 458.068 240.17 458.223 240.385 458.336C240.605 458.449 240.871 458.506 241.182 458.506C241.601 458.506 241.965 458.421 242.276 458.251C242.593 458.076 242.842 457.864 243.023 457.615C243.204 457.361 243.3 457.12 243.311 456.894L243.973 457.802C243.905 458.034 243.789 458.282 243.625 458.548C243.461 458.814 243.246 459.068 242.98 459.312C242.72 459.549 242.406 459.744 242.039 459.897C241.677 460.05 241.258 460.126 240.783 460.126C240.184 460.126 239.65 460.007 239.18 459.77C238.711 459.527 238.343 459.201 238.078 458.794C237.812 458.381 237.679 457.915 237.679 457.395C237.679 456.908 237.769 456.478 237.95 456.105C238.137 455.726 238.408 455.41 238.765 455.155C239.127 454.901 239.568 454.708 240.088 454.578C240.608 454.443 241.202 454.375 241.869 454.375H243.472ZM249.381 446.927V459.956H247.328V446.927H249.381ZM259.39 459.956H256.752L256.769 458.268H259.39C260.154 458.268 260.793 458.101 261.307 457.768C261.828 457.434 262.218 456.956 262.478 456.334C262.744 455.712 262.877 454.971 262.877 454.112V453.442C262.877 452.774 262.8 452.183 262.648 451.669C262.501 451.154 262.28 450.722 261.986 450.371C261.698 450.02 261.341 449.755 260.917 449.574C260.499 449.393 260.015 449.302 259.467 449.302H256.701V447.606H259.467C260.287 447.606 261.036 447.744 261.715 448.021C262.393 448.293 262.979 448.686 263.471 449.2C263.968 449.715 264.35 450.331 264.616 451.05C264.881 451.768 265.014 452.571 265.014 453.459V454.112C265.014 455 264.881 455.803 264.616 456.521C264.35 457.239 263.968 457.855 263.471 458.37C262.973 458.879 262.379 459.272 261.689 459.549C261.005 459.821 260.239 459.956 259.39 459.956ZM257.931 447.606V459.956H255.802V447.606H257.931ZM266.384 455.469V455.274C266.384 454.612 266.481 453.999 266.673 453.433C266.865 452.862 267.142 452.367 267.504 451.949C267.872 451.525 268.318 451.197 268.844 450.965C269.376 450.727 269.975 450.609 270.643 450.609C271.316 450.609 271.915 450.727 272.441 450.965C272.973 451.197 273.422 451.525 273.79 451.949C274.157 452.367 274.437 452.862 274.63 453.433C274.822 453.999 274.918 454.612 274.918 455.274V455.469C274.918 456.131 274.822 456.744 274.63 457.31C274.437 457.875 274.157 458.37 273.79 458.794C273.422 459.213 272.975 459.541 272.449 459.778C271.924 460.01 271.327 460.126 270.66 460.126C269.987 460.126 269.384 460.01 268.853 459.778C268.327 459.541 267.88 459.213 267.513 458.794C267.145 458.37 266.865 457.875 266.673 457.31C266.481 456.744 266.384 456.131 266.384 455.469ZM268.429 455.274V455.469C268.429 455.882 268.471 456.272 268.556 456.64C268.641 457.007 268.774 457.33 268.955 457.607C269.136 457.884 269.368 458.101 269.65 458.26C269.933 458.418 270.269 458.497 270.66 458.497C271.039 458.497 271.367 458.418 271.644 458.26C271.926 458.101 272.158 457.884 272.339 457.607C272.52 457.33 272.653 457.007 272.738 456.64C272.828 456.272 272.874 455.882 272.874 455.469V455.274C272.874 454.867 272.828 454.482 272.738 454.12C272.653 453.753 272.517 453.428 272.331 453.145C272.15 452.862 271.918 452.642 271.635 452.483C271.358 452.319 271.027 452.237 270.643 452.237C270.258 452.237 269.925 452.319 269.642 452.483C269.365 452.642 269.136 452.862 268.955 453.145C268.774 453.428 268.641 453.753 268.556 454.12C268.471 454.482 268.429 454.867 268.429 455.274ZM278.952 457.92L281.072 450.778H282.378L282.022 452.916L279.885 459.956H278.714L278.952 457.92ZM277.705 450.778L279.359 457.954L279.494 459.956H278.188L275.703 450.778H277.705ZM284.363 457.87L285.967 450.778H287.96L285.483 459.956H284.177L284.363 457.87ZM282.599 450.778L284.694 457.836L284.957 459.956H283.787L281.624 452.907L281.267 450.778H282.599ZM291.205 452.738V459.956H289.16V450.778H291.086L291.205 452.738ZM290.84 455.028L290.178 455.019C290.184 454.369 290.274 453.773 290.45 453.23C290.631 452.687 290.88 452.22 291.196 451.83C291.519 451.44 291.903 451.14 292.35 450.931C292.797 450.716 293.294 450.609 293.843 450.609C294.284 450.609 294.683 450.671 295.039 450.795C295.401 450.914 295.709 451.109 295.963 451.38C296.224 451.652 296.422 452.005 296.557 452.441C296.693 452.871 296.761 453.399 296.761 454.027V459.956H294.708V454.019C294.708 453.577 294.643 453.23 294.513 452.975C294.389 452.715 294.205 452.531 293.962 452.424C293.724 452.311 293.427 452.254 293.071 452.254C292.72 452.254 292.406 452.328 292.129 452.475C291.852 452.622 291.618 452.822 291.425 453.077C291.239 453.331 291.094 453.625 290.993 453.959C290.891 454.293 290.84 454.649 290.84 455.028ZM300.862 446.927V459.956H298.81V446.927H300.862ZM302.538 455.469V455.274C302.538 454.612 302.634 453.999 302.826 453.433C303.018 452.862 303.296 452.367 303.657 451.949C304.025 451.525 304.472 451.197 304.998 450.965C305.529 450.727 306.129 450.609 306.796 450.609C307.469 450.609 308.068 450.727 308.594 450.965C309.126 451.197 309.575 451.525 309.943 451.949C310.311 452.367 310.591 452.862 310.783 453.433C310.975 453.999 311.071 454.612 311.071 455.274V455.469C311.071 456.131 310.975 456.744 310.783 457.31C310.591 457.875 310.311 458.37 309.943 458.794C309.575 459.213 309.129 459.541 308.603 459.778C308.077 460.01 307.48 460.126 306.813 460.126C306.14 460.126 305.538 460.01 305.006 459.778C304.48 459.541 304.034 459.213 303.666 458.794C303.298 458.37 303.018 457.875 302.826 457.31C302.634 456.744 302.538 456.131 302.538 455.469ZM304.582 455.274V455.469C304.582 455.882 304.624 456.272 304.709 456.64C304.794 457.007 304.927 457.33 305.108 457.607C305.289 457.884 305.521 458.101 305.804 458.26C306.086 458.418 306.423 458.497 306.813 458.497C307.192 458.497 307.52 458.418 307.797 458.26C308.08 458.101 308.312 457.884 308.493 457.607C308.673 457.33 308.806 457.007 308.891 456.64C308.982 456.272 309.027 455.882 309.027 455.469V455.274C309.027 454.867 308.982 454.482 308.891 454.12C308.806 453.753 308.671 453.428 308.484 453.145C308.303 452.862 308.071 452.642 307.788 452.483C307.511 452.319 307.181 452.237 306.796 452.237C306.411 452.237 306.078 452.319 305.795 452.483C305.518 452.642 305.289 452.862 305.108 453.145C304.927 453.428 304.794 453.753 304.709 454.12C304.624 454.482 304.582 454.867 304.582 455.274ZM317.785 458.116V453.739C317.785 453.411 317.726 453.128 317.607 452.89C317.488 452.653 317.307 452.469 317.064 452.339C316.827 452.209 316.527 452.144 316.165 452.144C315.832 452.144 315.543 452.2 315.3 452.314C315.057 452.427 314.867 452.579 314.732 452.772C314.596 452.964 314.528 453.182 314.528 453.425H312.492C312.492 453.063 312.58 452.712 312.755 452.373C312.93 452.034 313.185 451.731 313.519 451.465C313.852 451.199 314.251 450.99 314.715 450.838C315.178 450.685 315.699 450.609 316.275 450.609C316.965 450.609 317.576 450.724 318.108 450.956C318.645 451.188 319.066 451.539 319.372 452.008C319.683 452.472 319.838 453.054 319.838 453.756V457.836C319.838 458.254 319.866 458.63 319.923 458.964C319.985 459.292 320.073 459.577 320.186 459.821V459.956H318.091C317.995 459.736 317.918 459.456 317.862 459.117C317.811 458.772 317.785 458.438 317.785 458.116ZM318.082 454.375L318.099 455.639H316.632C316.253 455.639 315.919 455.675 315.631 455.749C315.342 455.817 315.102 455.919 314.91 456.054C314.717 456.19 314.573 456.354 314.477 456.546C314.381 456.739 314.333 456.956 314.333 457.199C314.333 457.443 314.389 457.666 314.503 457.87C314.616 458.068 314.78 458.223 314.995 458.336C315.215 458.449 315.481 458.506 315.792 458.506C316.21 458.506 316.575 458.421 316.886 458.251C317.203 458.076 317.452 457.864 317.633 457.615C317.814 457.361 317.91 457.12 317.921 456.894L318.583 457.802C318.515 458.034 318.399 458.282 318.235 458.548C318.071 458.814 317.856 459.068 317.59 459.312C317.33 459.549 317.016 459.744 316.649 459.897C316.287 460.05 315.868 460.126 315.393 460.126C314.794 460.126 314.259 460.007 313.79 459.77C313.321 459.527 312.953 459.201 312.687 458.794C312.422 458.381 312.289 457.915 312.289 457.395C312.289 456.908 312.379 456.478 312.56 456.105C312.747 455.726 313.018 455.41 313.374 455.155C313.736 454.901 314.177 454.708 314.698 454.578C315.218 454.443 315.812 454.375 316.479 454.375H318.082ZM327.4 458.056V446.927H329.453V459.956H327.596L327.4 458.056ZM321.429 455.469V455.291C321.429 454.595 321.511 453.962 321.675 453.391C321.839 452.814 322.076 452.319 322.387 451.906C322.698 451.488 323.077 451.168 323.524 450.948C323.971 450.722 324.474 450.609 325.034 450.609C325.588 450.609 326.074 450.716 326.493 450.931C326.911 451.146 327.268 451.454 327.562 451.855C327.856 452.251 328.09 452.726 328.266 453.281C328.441 453.829 328.565 454.44 328.639 455.113V455.681C328.565 456.337 328.441 456.937 328.266 457.479C328.09 458.022 327.856 458.492 327.562 458.887C327.268 459.283 326.908 459.589 326.484 459.804C326.066 460.019 325.577 460.126 325.017 460.126C324.463 460.126 323.962 460.01 323.515 459.778C323.074 459.546 322.698 459.221 322.387 458.803C322.076 458.384 321.839 457.892 321.675 457.327C321.511 456.756 321.429 456.136 321.429 455.469ZM323.473 455.291V455.469C323.473 455.888 323.51 456.278 323.583 456.64C323.662 457.002 323.784 457.321 323.948 457.598C324.112 457.87 324.324 458.084 324.584 458.243C324.85 458.396 325.167 458.472 325.534 458.472C325.998 458.472 326.38 458.37 326.679 458.166C326.979 457.963 327.214 457.689 327.383 457.344C327.559 456.993 327.678 456.603 327.74 456.173V454.638C327.706 454.304 327.635 453.993 327.528 453.705C327.426 453.416 327.287 453.165 327.112 452.95C326.937 452.729 326.719 452.56 326.459 452.441C326.204 452.316 325.902 452.254 325.551 452.254C325.178 452.254 324.861 452.333 324.601 452.492C324.341 452.65 324.126 452.868 323.957 453.145C323.793 453.422 323.671 453.744 323.592 454.112C323.513 454.479 323.473 454.872 323.473 455.291ZM336.566 457.471C336.566 457.267 336.515 457.084 336.413 456.92C336.312 456.75 336.116 456.597 335.828 456.461C335.545 456.326 335.127 456.201 334.573 456.088C334.086 455.981 333.64 455.854 333.232 455.707C332.831 455.554 332.486 455.37 332.198 455.155C331.909 454.94 331.686 454.686 331.527 454.392C331.369 454.098 331.29 453.758 331.29 453.374C331.29 453.001 331.372 452.647 331.536 452.314C331.7 451.98 331.935 451.686 332.24 451.431C332.545 451.177 332.916 450.976 333.351 450.829C333.792 450.682 334.284 450.609 334.827 450.609C335.596 450.609 336.255 450.739 336.804 450.999C337.358 451.253 337.782 451.601 338.076 452.042C338.37 452.478 338.517 452.97 338.517 453.518H336.473C336.473 453.275 336.411 453.049 336.286 452.839C336.167 452.625 335.986 452.452 335.743 452.322C335.5 452.186 335.195 452.118 334.827 452.118C334.476 452.118 334.185 452.175 333.953 452.288C333.727 452.396 333.558 452.537 333.444 452.712C333.337 452.888 333.283 453.08 333.283 453.289C333.283 453.442 333.312 453.58 333.368 453.705C333.43 453.823 333.532 453.934 333.673 454.035C333.815 454.132 334.007 454.222 334.25 454.307C334.499 454.392 334.81 454.474 335.183 454.553C335.885 454.7 336.487 454.889 336.99 455.121C337.499 455.347 337.889 455.642 338.161 456.003C338.432 456.36 338.568 456.812 338.568 457.361C338.568 457.768 338.48 458.141 338.305 458.48C338.135 458.814 337.886 459.105 337.558 459.354C337.23 459.597 336.837 459.787 336.379 459.922C335.927 460.058 335.418 460.126 334.853 460.126C334.021 460.126 333.317 459.979 332.74 459.685C332.164 459.385 331.725 459.003 331.426 458.54C331.132 458.07 330.985 457.584 330.985 457.081H332.961C332.984 457.46 333.088 457.762 333.275 457.988C333.467 458.209 333.705 458.37 333.987 458.472C334.276 458.568 334.573 458.616 334.878 458.616C335.246 458.616 335.554 458.568 335.803 458.472C336.051 458.37 336.241 458.234 336.371 458.065C336.501 457.889 336.566 457.691 336.566 457.471Z" fill="#111827"/>
<path d="M422.858 458.328V459.956H414.579V458.557L418.6 454.171C419.041 453.674 419.389 453.244 419.643 452.882C419.898 452.52 420.076 452.195 420.178 451.906C420.285 451.612 420.339 451.327 420.339 451.05C420.339 450.659 420.266 450.317 420.118 450.023C419.977 449.724 419.768 449.489 419.491 449.319C419.214 449.144 418.877 449.056 418.481 449.056C418.023 449.056 417.639 449.155 417.328 449.353C417.017 449.551 416.782 449.825 416.624 450.176C416.465 450.521 416.386 450.917 416.386 451.363H414.342C414.342 450.645 414.506 449.989 414.834 449.396C415.162 448.796 415.637 448.321 416.259 447.97C416.881 447.614 417.63 447.436 418.507 447.436C419.332 447.436 420.034 447.575 420.61 447.852C421.187 448.129 421.626 448.522 421.925 449.031C422.231 449.54 422.383 450.142 422.383 450.838C422.383 451.222 422.321 451.604 422.197 451.983C422.072 452.362 421.894 452.74 421.662 453.119C421.436 453.493 421.167 453.869 420.856 454.248C420.545 454.621 420.203 455 419.83 455.384L417.158 458.328H422.858ZM432.355 456.589C432.355 457.358 432.177 458.005 431.82 458.531C431.464 459.057 430.978 459.456 430.361 459.727C429.751 459.993 429.061 460.126 428.292 460.126C427.523 460.126 426.83 459.993 426.213 459.727C425.597 459.456 425.111 459.057 424.754 458.531C424.398 458.005 424.22 457.358 424.22 456.589C424.22 456.08 424.319 455.619 424.517 455.206C424.715 454.788 424.995 454.429 425.357 454.129C425.724 453.823 426.154 453.589 426.646 453.425C427.144 453.261 427.687 453.179 428.275 453.179C429.055 453.179 429.753 453.323 430.37 453.611C430.986 453.9 431.47 454.298 431.82 454.807C432.177 455.316 432.355 455.91 432.355 456.589ZM430.302 456.487C430.302 456.074 430.217 455.712 430.047 455.401C429.878 455.09 429.64 454.85 429.335 454.68C429.03 454.511 428.676 454.426 428.275 454.426C427.867 454.426 427.514 454.511 427.214 454.68C426.915 454.85 426.68 455.09 426.51 455.401C426.346 455.712 426.264 456.074 426.264 456.487C426.264 456.905 426.346 457.267 426.51 457.573C426.674 457.872 426.909 458.101 427.214 458.26C427.52 458.418 427.879 458.497 428.292 458.497C428.704 458.497 429.061 458.418 429.36 458.26C429.66 458.101 429.892 457.872 430.056 457.573C430.22 457.267 430.302 456.905 430.302 456.487ZM432.075 450.855C432.075 451.471 431.911 452.019 431.583 452.5C431.26 452.981 430.814 453.36 430.243 453.637C429.671 453.908 429.021 454.044 428.292 454.044C427.556 454.044 426.9 453.908 426.324 453.637C425.752 453.36 425.303 452.981 424.975 452.5C424.653 452.019 424.491 451.471 424.491 450.855C424.491 450.119 424.653 449.5 424.975 448.997C425.303 448.488 425.752 448.101 426.324 447.835C426.895 447.569 427.548 447.436 428.283 447.436C429.018 447.436 429.671 447.569 430.243 447.835C430.814 448.101 431.26 448.488 431.583 448.997C431.911 449.5 432.075 450.119 432.075 450.855ZM430.031 450.922C430.031 450.555 429.957 450.232 429.81 449.955C429.669 449.673 429.468 449.452 429.208 449.294C428.948 449.135 428.639 449.056 428.283 449.056C427.927 449.056 427.619 449.133 427.359 449.285C427.098 449.438 426.898 449.653 426.756 449.93C426.615 450.207 426.544 450.538 426.544 450.922C426.544 451.301 426.615 451.632 426.756 451.915C426.898 452.192 427.098 452.41 427.359 452.568C427.624 452.726 427.935 452.806 428.292 452.806C428.648 452.806 428.956 452.726 429.216 452.568C429.476 452.41 429.677 452.192 429.818 451.915C429.96 451.632 430.031 451.301 430.031 450.922ZM436.38 452.856H437.601C438.076 452.856 438.469 452.774 438.78 452.61C439.097 452.446 439.332 452.22 439.484 451.932C439.637 451.643 439.714 451.313 439.714 450.939C439.714 450.549 439.643 450.216 439.501 449.938C439.366 449.656 439.156 449.438 438.874 449.285C438.597 449.133 438.243 449.056 437.813 449.056C437.452 449.056 437.124 449.13 436.829 449.277C436.541 449.418 436.312 449.622 436.142 449.888C435.973 450.148 435.888 450.459 435.888 450.821H433.835C433.835 450.165 434.008 449.582 434.353 449.073C434.698 448.564 435.167 448.166 435.761 447.877C436.36 447.583 437.033 447.436 437.779 447.436C438.577 447.436 439.272 447.569 439.866 447.835C440.466 448.095 440.932 448.485 441.266 449.005C441.599 449.526 441.766 450.17 441.766 450.939C441.766 451.29 441.684 451.646 441.52 452.008C441.356 452.37 441.113 452.701 440.791 453.001C440.468 453.295 440.067 453.535 439.586 453.722C439.106 453.903 438.549 453.993 437.915 453.993H436.38V452.856ZM436.38 454.451V453.331H437.915C438.639 453.331 439.255 453.416 439.764 453.586C440.279 453.756 440.697 453.99 441.02 454.29C441.342 454.584 441.577 454.92 441.724 455.299C441.877 455.678 441.953 456.08 441.953 456.504C441.953 457.081 441.848 457.595 441.639 458.048C441.435 458.494 441.144 458.873 440.765 459.184C440.386 459.495 439.943 459.73 439.434 459.888C438.93 460.047 438.382 460.126 437.788 460.126C437.256 460.126 436.747 460.052 436.261 459.905C435.775 459.758 435.339 459.541 434.955 459.252C434.57 458.958 434.265 458.593 434.039 458.158C433.818 457.717 433.708 457.208 433.708 456.631H435.752C435.752 456.999 435.837 457.324 436.007 457.607C436.182 457.884 436.425 458.101 436.736 458.26C437.053 458.418 437.415 458.497 437.822 458.497C438.252 458.497 438.622 458.421 438.933 458.268C439.244 458.116 439.482 457.889 439.646 457.59C439.815 457.29 439.9 456.928 439.9 456.504C439.9 456.023 439.807 455.633 439.62 455.333C439.434 455.034 439.168 454.813 438.823 454.672C438.478 454.525 438.071 454.451 437.601 454.451H436.38Z" fill="#627193"/>
<g filter="url(#filter6_d_205_11525)">
<rect x="154.816" y="436.511" width="34.7445" height="34.7445" rx="4.9635" fill="white"/>
</g>
<g clip-path="url(#clip1_205_11525)">
<path d="M177.512 452.461C177.02 449.971 174.823 448.093 172.188 448.093C170.096 448.093 168.283 449.28 167.375 451.013C165.199 451.249 163.502 453.091 163.502 455.331C163.502 457.731 165.445 459.674 167.845 459.674H177.255C179.253 459.674 180.874 458.053 180.874 456.055C180.874 454.144 179.387 452.595 177.512 452.461ZM172.188 458.226L168.569 454.607H170.74V451.712H173.636V454.607H175.807L172.188 458.226Z" fill="#0066FC"/>
</g>
<path opacity="0.8" d="M209.724 506.52C209.724 506.265 209.684 506.039 209.605 505.841C209.531 505.643 209.399 505.462 209.206 505.298C209.014 505.134 208.743 504.976 208.392 504.823C208.047 504.665 207.606 504.504 207.069 504.34C206.481 504.159 205.938 503.958 205.44 503.737C204.948 503.511 204.518 503.251 204.151 502.957C203.783 502.657 203.498 502.315 203.294 501.931C203.09 501.54 202.989 501.091 202.989 500.582C202.989 500.079 203.093 499.621 203.302 499.208C203.517 498.795 203.82 498.439 204.21 498.139C204.606 497.834 205.072 497.599 205.61 497.435C206.147 497.265 206.741 497.18 207.391 497.18C208.307 497.18 209.096 497.35 209.758 497.689C210.425 498.029 210.937 498.484 211.293 499.055C211.655 499.626 211.836 500.257 211.836 500.947H209.724C209.724 500.54 209.636 500.18 209.461 499.869C209.291 499.553 209.031 499.304 208.68 499.123C208.335 498.942 207.897 498.852 207.366 498.852C206.862 498.852 206.444 498.928 206.11 499.081C205.777 499.233 205.528 499.44 205.364 499.7C205.2 499.96 205.118 500.254 205.118 500.582C205.118 500.814 205.171 501.026 205.279 501.218C205.386 501.405 205.55 501.58 205.771 501.744C205.991 501.902 206.269 502.052 206.602 502.194C206.936 502.335 207.329 502.471 207.781 502.601C208.466 502.804 209.062 503.031 209.571 503.279C210.08 503.523 210.504 503.8 210.843 504.111C211.183 504.422 211.437 504.775 211.607 505.171C211.777 505.561 211.861 506.005 211.861 506.503C211.861 507.023 211.757 507.492 211.548 507.911C211.338 508.324 211.039 508.677 210.648 508.971C210.264 509.26 209.8 509.483 209.257 509.641C208.72 509.794 208.121 509.87 207.459 509.87C206.865 509.87 206.28 509.791 205.703 509.633C205.132 509.474 204.612 509.234 204.142 508.912C203.673 508.584 203.3 508.177 203.023 507.69C202.745 507.198 202.607 506.624 202.607 505.968H204.736C204.736 506.37 204.804 506.712 204.94 506.995C205.081 507.278 205.276 507.509 205.525 507.69C205.774 507.866 206.062 507.996 206.39 508.081C206.724 508.165 207.08 508.208 207.459 508.208C207.957 508.208 208.372 508.137 208.706 507.996C209.045 507.854 209.3 507.656 209.469 507.402C209.639 507.147 209.724 506.853 209.724 506.52ZM218.542 507.86V503.483C218.542 503.155 218.482 502.872 218.363 502.635C218.245 502.397 218.064 502.213 217.821 502.083C217.583 501.953 217.283 501.888 216.921 501.888C216.588 501.888 216.299 501.945 216.056 502.058C215.813 502.171 215.624 502.324 215.488 502.516C215.352 502.708 215.284 502.926 215.284 503.169H213.248C213.248 502.807 213.336 502.457 213.511 502.117C213.687 501.778 213.941 501.475 214.275 501.21C214.608 500.944 215.007 500.735 215.471 500.582C215.935 500.429 216.455 500.353 217.032 500.353C217.722 500.353 218.332 500.469 218.864 500.701C219.401 500.933 219.822 501.283 220.128 501.753C220.439 502.216 220.594 502.799 220.594 503.5V507.58C220.594 507.999 220.623 508.375 220.679 508.708C220.741 509.036 220.829 509.322 220.942 509.565V509.701H218.847C218.751 509.48 218.674 509.2 218.618 508.861C218.567 508.516 218.542 508.182 218.542 507.86ZM218.838 504.119L218.855 505.383H217.388C217.009 505.383 216.675 505.42 216.387 505.493C216.099 505.561 215.858 505.663 215.666 505.799C215.474 505.934 215.329 506.098 215.233 506.291C215.137 506.483 215.089 506.701 215.089 506.944C215.089 507.187 215.146 507.41 215.259 507.614C215.372 507.812 215.536 507.967 215.751 508.081C215.971 508.194 216.237 508.25 216.548 508.25C216.967 508.25 217.331 508.165 217.642 507.996C217.959 507.82 218.208 507.608 218.389 507.359C218.57 507.105 218.666 506.865 218.677 506.638L219.339 507.546C219.271 507.778 219.155 508.027 218.991 508.293C218.827 508.558 218.612 508.813 218.346 509.056C218.086 509.294 217.772 509.489 217.405 509.641C217.043 509.794 216.624 509.87 216.149 509.87C215.55 509.87 215.016 509.752 214.546 509.514C214.077 509.271 213.709 508.946 213.444 508.539C213.178 508.126 213.045 507.659 213.045 507.139C213.045 506.653 213.135 506.223 213.316 505.85C213.503 505.471 213.774 505.154 214.131 504.9C214.493 504.645 214.934 504.453 215.454 504.323C215.974 504.187 216.568 504.119 217.235 504.119H218.838ZM227.733 507.86V503.483C227.733 503.155 227.673 502.872 227.554 502.635C227.436 502.397 227.255 502.213 227.012 502.083C226.774 501.953 226.474 501.888 226.112 501.888C225.779 501.888 225.49 501.945 225.247 502.058C225.004 502.171 224.815 502.324 224.679 502.516C224.543 502.708 224.475 502.926 224.475 503.169H222.439C222.439 502.807 222.527 502.457 222.702 502.117C222.878 501.778 223.132 501.475 223.466 501.21C223.799 500.944 224.198 500.735 224.662 500.582C225.126 500.429 225.646 500.353 226.223 500.353C226.913 500.353 227.523 500.469 228.055 500.701C228.592 500.933 229.013 501.283 229.319 501.753C229.63 502.216 229.785 502.799 229.785 503.5V507.58C229.785 507.999 229.814 508.375 229.87 508.708C229.932 509.036 230.02 509.322 230.133 509.565V509.701H228.038C227.942 509.48 227.865 509.2 227.809 508.861C227.758 508.516 227.733 508.182 227.733 507.86ZM228.029 504.119L228.046 505.383H226.579C226.2 505.383 225.866 505.42 225.578 505.493C225.29 505.561 225.049 505.663 224.857 505.799C224.665 505.934 224.52 506.098 224.424 506.291C224.328 506.483 224.28 506.701 224.28 506.944C224.28 507.187 224.337 507.41 224.45 507.614C224.563 507.812 224.727 507.967 224.942 508.081C225.162 508.194 225.428 508.25 225.739 508.25C226.158 508.25 226.522 508.165 226.833 507.996C227.15 507.82 227.399 507.608 227.58 507.359C227.761 507.105 227.857 506.865 227.868 506.638L228.53 507.546C228.462 507.778 228.346 508.027 228.182 508.293C228.018 508.558 227.803 508.813 227.537 509.056C227.277 509.294 226.963 509.489 226.596 509.641C226.234 509.794 225.815 509.87 225.34 509.87C224.741 509.87 224.207 509.752 223.737 509.514C223.268 509.271 222.9 508.946 222.635 508.539C222.369 508.126 222.236 507.659 222.236 507.139C222.236 506.653 222.326 506.223 222.507 505.85C222.694 505.471 222.965 505.154 223.322 504.9C223.684 504.645 224.125 504.453 224.645 504.323C225.165 504.187 225.759 504.119 226.426 504.119H228.029ZM238.45 506.52C238.45 506.265 238.411 506.039 238.332 505.841C238.258 505.643 238.125 505.462 237.933 505.298C237.741 505.134 237.469 504.976 237.119 504.823C236.774 504.665 236.333 504.504 235.795 504.34C235.207 504.159 234.664 503.958 234.167 503.737C233.675 503.511 233.245 503.251 232.877 502.957C232.51 502.657 232.224 502.315 232.021 501.931C231.817 501.54 231.715 501.091 231.715 500.582C231.715 500.079 231.82 499.621 232.029 499.208C232.244 498.795 232.547 498.439 232.937 498.139C233.333 497.834 233.799 497.599 234.336 497.435C234.874 497.265 235.467 497.18 236.118 497.18C237.034 497.18 237.823 497.35 238.484 497.689C239.152 498.029 239.663 498.484 240.02 499.055C240.382 499.626 240.563 500.257 240.563 500.947H238.45C238.45 500.54 238.363 500.18 238.187 499.869C238.018 499.553 237.758 499.304 237.407 499.123C237.062 498.942 236.624 498.852 236.092 498.852C235.589 498.852 235.17 498.928 234.837 499.081C234.503 499.233 234.254 499.44 234.09 499.7C233.926 499.96 233.844 500.254 233.844 500.582C233.844 500.814 233.898 501.026 234.006 501.218C234.113 501.405 234.277 501.58 234.498 501.744C234.718 501.902 234.995 502.052 235.329 502.194C235.662 502.335 236.056 502.471 236.508 502.601C237.192 502.804 237.789 503.031 238.298 503.279C238.807 503.523 239.231 503.8 239.57 504.111C239.909 504.422 240.164 504.775 240.334 505.171C240.503 505.561 240.588 506.005 240.588 506.503C240.588 507.023 240.483 507.492 240.274 507.911C240.065 508.324 239.765 508.677 239.375 508.971C238.99 509.26 238.527 509.483 237.984 509.641C237.447 509.794 236.847 509.87 236.186 509.87C235.592 509.87 235.006 509.791 234.43 509.633C233.859 509.474 233.338 509.234 232.869 508.912C232.4 508.584 232.026 508.177 231.749 507.69C231.472 507.198 231.334 506.624 231.334 505.968H233.463C233.463 506.37 233.531 506.712 233.666 506.995C233.808 507.278 234.003 507.509 234.252 507.69C234.5 507.866 234.789 507.996 235.117 508.081C235.45 508.165 235.807 508.208 236.186 508.208C236.683 508.208 237.099 508.137 237.433 507.996C237.772 507.854 238.026 507.656 238.196 507.402C238.366 507.147 238.45 506.853 238.45 506.52Z" fill="#111827"/>
<path d="M420.755 497.274H421.009V498.945H420.865C420.135 498.945 419.505 499.058 418.973 499.284C418.447 499.51 418.015 499.821 417.676 500.217C417.336 500.613 417.082 501.077 416.912 501.608C416.748 502.134 416.666 502.694 416.666 503.288V505.23C416.666 505.722 416.72 506.158 416.827 506.537C416.935 506.91 417.085 507.224 417.277 507.478C417.475 507.727 417.701 507.917 417.955 508.047C418.21 508.177 418.484 508.242 418.778 508.242C419.084 508.242 419.361 508.179 419.61 508.055C419.858 507.925 420.07 507.747 420.246 507.521C420.421 507.294 420.554 507.026 420.644 506.715C420.735 506.404 420.78 506.064 420.78 505.697C420.78 505.346 420.735 505.018 420.644 504.713C420.56 504.402 420.432 504.13 420.263 503.899C420.093 503.661 419.881 503.477 419.627 503.347C419.378 503.212 419.089 503.144 418.761 503.144C418.354 503.144 417.984 503.24 417.65 503.432C417.322 503.624 417.056 503.876 416.853 504.187C416.655 504.492 416.547 504.818 416.53 505.163L415.75 504.908C415.795 504.382 415.911 503.91 416.098 503.491C416.29 503.073 416.542 502.717 416.853 502.423C417.164 502.129 417.523 501.905 417.93 501.753C418.343 501.594 418.795 501.515 419.287 501.515C419.887 501.515 420.407 501.628 420.848 501.854C421.289 502.081 421.654 502.389 421.942 502.779C422.236 503.163 422.454 503.605 422.595 504.102C422.742 504.594 422.816 505.109 422.816 505.646C422.816 506.24 422.725 506.794 422.544 507.309C422.364 507.818 422.098 508.264 421.747 508.649C421.402 509.033 420.981 509.333 420.483 509.548C419.991 509.763 419.431 509.87 418.804 509.87C418.142 509.87 417.551 509.743 417.031 509.489C416.516 509.234 416.078 508.884 415.716 508.437C415.36 507.99 415.088 507.475 414.902 506.893C414.715 506.31 414.622 505.694 414.622 505.044V504.196C414.622 503.257 414.741 502.372 414.978 501.54C415.216 500.704 415.58 499.966 416.072 499.327C416.57 498.688 417.206 498.187 417.981 497.825C418.756 497.458 419.68 497.274 420.755 497.274ZM432.558 508.072V509.701H424.279V508.301L428.3 503.916C428.741 503.418 429.089 502.988 429.343 502.626C429.598 502.264 429.776 501.939 429.878 501.651C429.985 501.357 430.039 501.071 430.039 500.794C430.039 500.404 429.965 500.062 429.818 499.768C429.677 499.468 429.468 499.233 429.191 499.064C428.914 498.888 428.577 498.801 428.181 498.801C427.723 498.801 427.339 498.9 427.028 499.097C426.717 499.295 426.482 499.57 426.324 499.92C426.165 500.265 426.086 500.661 426.086 501.108H424.042C424.042 500.39 424.206 499.734 424.534 499.14C424.862 498.54 425.337 498.065 425.959 497.715C426.581 497.359 427.33 497.18 428.207 497.18C429.032 497.18 429.734 497.319 430.31 497.596C430.887 497.873 431.326 498.266 431.625 498.775C431.931 499.284 432.083 499.886 432.083 500.582C432.083 500.966 432.021 501.348 431.897 501.727C431.772 502.106 431.594 502.485 431.362 502.864C431.136 503.237 430.867 503.613 430.556 503.992C430.245 504.365 429.903 504.744 429.53 505.129L426.858 508.072H432.558ZM442.182 497.35V498.47L437.245 509.701H435.091L440.019 498.979H433.623V497.35H442.182Z" fill="#627193"/>
<g filter="url(#filter7_d_205_11525)">
<rect x="154.816" y="486.256" width="34.7445" height="34.7445" rx="4.9635" fill="white"/>
</g>
<g clip-path="url(#clip2_205_11525)">
<path d="M180.744 505.98C180.744 505.98 180.372 505.765 180.186 505.657C180.181 505.55 180.169 505.444 180.147 505.341C180.294 505.214 180.589 504.961 180.589 504.961V504.452L179.862 503.604H179.352C179.352 503.604 179.11 503.81 178.989 503.914C178.859 503.851 178.72 503.799 178.575 503.759C178.564 503.615 178.54 503.328 178.54 503.328L178.18 502.967L177.067 503.057L176.706 503.418C176.706 503.418 176.737 503.796 176.752 503.985C176.642 504.046 176.539 504.117 176.444 504.195C176.287 504.123 175.973 503.98 175.973 503.98L175.481 504.11L175.015 505.126L174.998 505.195L175.144 505.619C175.144 505.619 175.507 505.784 175.689 505.867C175.698 505.987 175.715 506.104 175.746 506.218C175.607 506.335 175.33 506.57 175.33 506.57V507.079L176.051 507.932C176.051 507.932 176.472 507.982 176.494 507.969C176.516 507.957 176.561 507.932 176.561 507.932C176.561 507.932 176.825 507.709 176.957 507.597C177.069 507.646 177.184 507.689 177.305 507.721C177.319 507.871 177.346 508.171 177.346 508.171L177.707 508.532L178.818 508.431L179.178 508.07C179.178 508.07 179.143 507.684 179.126 507.491C179.217 507.439 179.305 507.382 179.386 507.319C179.532 507.402 179.821 507.569 179.821 507.569L180.313 507.44L180.873 506.473L180.744 505.98ZM177.876 506.874C177.255 506.874 176.752 506.371 176.752 505.75C176.752 505.129 177.255 504.626 177.876 504.626C178.497 504.626 179 505.129 179 505.75C179.001 506.371 178.497 506.874 177.876 506.874Z" fill="#0066FC"/>
<path d="M177.472 501.877C177.567 501.877 177.661 501.885 177.754 501.891C177.767 501.798 177.778 501.704 177.783 501.61C177.691 499.908 176.479 498.697 174.777 498.605C173.779 498.551 172.947 499.061 172.412 499.806C171.879 499.104 171.049 498.659 170.046 498.605C168.348 498.514 167.126 500.046 167.042 501.61C167.032 501.811 167.045 502.004 167.076 502.191C166.97 502.176 166.862 502.166 166.751 502.159C164.916 502.061 163.595 503.717 163.504 505.407C163.411 507.133 164.872 508.404 166.452 508.624V508.654H174.505C173.841 507.934 173.431 506.975 173.431 505.917C173.431 503.686 175.241 501.877 177.472 501.877Z" fill="#0066FC"/>
</g>
<defs>
<filter id="filter0_d_205_11525" x="118" y="0" width="685" height="761.685" filterUnits="userSpaceOnUse" color-interpolation-filters="sRGB">
<feFlood flood-opacity="0" result="BackgroundImageFix"/>
<feColorMatrix in="SourceAlpha" type="matrix" values="0 0 0 0 0 0 0 0 0 0 0 0 0 0 0 0 0 0 127 0" result="hardAlpha"/>
<feOffset dx="10" dy="30"/>
<feGaussianBlur stdDeviation="40"/>
<feComposite in2="hardAlpha" operator="out"/>
<feColorMatrix type="matrix" values="0 0 0 0 0 0 0 0 0 0 0 0 0 0 0 0 0 0 0.04 0"/>
<feBlend mode="normal" in2="BackgroundImageFix" result="effect1_dropShadow_205_11525"/>
<feBlend mode="normal" in="SourceGraphic" in2="effect1_dropShadow_205_11525" result="shape"/>
</filter>
<filter id="filter1_d_205_11525" x="314.35" y="279.55" width="273.482" height="273.483" filterUnits="userSpaceOnUse" color-interpolation-filters="sRGB">
<feFlood flood-opacity="0" result="BackgroundImageFix"/>
<feColorMatrix in="SourceAlpha" type="matrix" values="0 0 0 0 0 0 0 0 0 0 0 0 0 0 0 0 0 0 127 0" result="hardAlpha"/>
<feOffset dy="10"/>
<feGaussianBlur stdDeviation="20"/>
<feComposite in2="hardAlpha" operator="out"/>
<feColorMatrix type="matrix" values="0 0 0 0 0 0 0 0 0 0 0 0 0 0 0 0 0 0 0.4 0"/>
<feBlend mode="normal" in2="BackgroundImageFix" result="effect1_dropShadow_205_11525"/>
<feBlend mode="normal" in="SourceGraphic" in2="effect1_dropShadow_205_11525" result="shape"/>
</filter>
<filter id="filter2_d_205_11525" x="245.809" y="75.9549" width="382.247" height="382.247" filterUnits="userSpaceOnUse" color-interpolation-filters="sRGB">
<feFlood flood-opacity="0" result="BackgroundImageFix"/>
<feColorMatrix in="SourceAlpha" type="matrix" values="0 0 0 0 0 0 0 0 0 0 0 0 0 0 0 0 0 0 127 0" result="hardAlpha"/>
<feOffset dy="51.9101"/>
<feGaussianBlur stdDeviation="61.3483"/>
<feComposite in2="hardAlpha" operator="out"/>
<feColorMatrix type="matrix" values="0 0 0 0 0 0 0 0 0 0 0 0 0 0 0 0 0 0 0.05 0"/>
<feBlend mode="normal" in2="BackgroundImageFix" result="effect1_dropShadow_205_11525"/>
<feBlend mode="normal" in="SourceGraphic" in2="effect1_dropShadow_205_11525" result="shape"/>
</filter>
<filter id="filter3_d_205_11525" x="396.819" y="401.573" width="382.247" height="382.247" filterUnits="userSpaceOnUse" color-interpolation-filters="sRGB">
<feFlood flood-opacity="0" result="BackgroundImageFix"/>
<feColorMatrix in="SourceAlpha" type="matrix" values="0 0 0 0 0 0 0 0 0 0 0 0 0 0 0 0 0 0 127 0" result="hardAlpha"/>
<feOffset dy="51.9101"/>
<feGaussianBlur stdDeviation="61.3483"/>
<feComposite in2="hardAlpha" operator="out"/>
<feColorMatrix type="matrix" values="0 0 0 0 0 0 0 0 0 0 0 0 0 0 0 0 0 0 0.05 0"/>
<feBlend mode="normal" in2="BackgroundImageFix" result="effect1_dropShadow_205_11525"/>
<feBlend mode="normal" in="SourceGraphic" in2="effect1_dropShadow_205_11525" result="shape"/>
</filter>
<filter id="filter4_d_205_11525" x="0.948914" y="246.547" width="598.102" height="483.942" filterUnits="userSpaceOnUse" color-interpolation-filters="sRGB">
<feFlood flood-opacity="0" result="BackgroundImageFix"/>
<feColorMatrix in="SourceAlpha" type="matrix" values="0 0 0 0 0 0 0 0 0 0 0 0 0 0 0 0 0 0 127 0" result="hardAlpha"/>
<feOffset dy="54.5985"/>
<feGaussianBlur stdDeviation="64.5255"/>
<feComposite in2="hardAlpha" operator="out"/>
<feColorMatrix type="matrix" values="0 0 0 0 0 0 0 0 0 0 0 0 0 0 0 0 0 0 0.05 0"/>
<feBlend mode="normal" in2="BackgroundImageFix" result="effect1_dropShadow_205_11525"/>
<feBlend mode="normal" in="SourceGraphic" in2="effect1_dropShadow_205_11525" result="shape"/>
</filter>
<filter id="filter5_d_205_11525" x="129.999" y="371.876" width="84.3792" height="84.3797" filterUnits="userSpaceOnUse" color-interpolation-filters="sRGB">
<feFlood flood-opacity="0" result="BackgroundImageFix"/>
<feColorMatrix in="SourceAlpha" type="matrix" values="0 0 0 0 0 0 0 0 0 0 0 0 0 0 0 0 0 0 127 0" result="hardAlpha"/>
<feOffset dy="9.92701"/>
<feGaussianBlur stdDeviation="12.4088"/>
<feComposite in2="hardAlpha" operator="out"/>
<feColorMatrix type="matrix" values="0 0 0 0 0 0 0 0 0 0 0 0 0 0 0 0 0 0 0.05 0"/>
<feBlend mode="normal" in2="BackgroundImageFix" result="effect1_dropShadow_205_11525"/>
<feBlend mode="normal" in="SourceGraphic" in2="effect1_dropShadow_205_11525" result="shape"/>
</filter>
<filter id="filter6_d_205_11525" x="129.999" y="421.621" width="84.3792" height="84.3797" filterUnits="userSpaceOnUse" color-interpolation-filters="sRGB">
<feFlood flood-opacity="0" result="BackgroundImageFix"/>
<feColorMatrix in="SourceAlpha" type="matrix" values="0 0 0 0 0 0 0 0 0 0 0 0 0 0 0 0 0 0 127 0" result="hardAlpha"/>
<feOffset dy="9.92701"/>
<feGaussianBlur stdDeviation="12.4088"/>
<feComposite in2="hardAlpha" operator="out"/>
<feColorMatrix type="matrix" values="0 0 0 0 0 0 0 0 0 0 0 0 0 0 0 0 0 0 0.05 0"/>
<feBlend mode="normal" in2="BackgroundImageFix" result="effect1_dropShadow_205_11525"/>
<feBlend mode="normal" in="SourceGraphic" in2="effect1_dropShadow_205_11525" result="shape"/>
</filter>
<filter id="filter7_d_205_11525" x="129.999" y="471.365" width="84.3792" height="84.3797" filterUnits="userSpaceOnUse" color-interpolation-filters="sRGB">
<feFlood flood-opacity="0" result="BackgroundImageFix"/>
<feColorMatrix in="SourceAlpha" type="matrix" values="0 0 0 0 0 0 0 0 0 0 0 0 0 0 0 0 0 0 127 0" result="hardAlpha"/>
<feOffset dy="9.92701"/>
<feGaussianBlur stdDeviation="12.4088"/>
<feComposite in2="hardAlpha" operator="out"/>
<feColorMatrix type="matrix" values="0 0 0 0 0 0 0 0 0 0 0 0 0 0 0 0 0 0 0.05 0"/>
<feBlend mode="normal" in2="BackgroundImageFix" result="effect1_dropShadow_205_11525"/>
<feBlend mode="normal" in="SourceGraphic" in2="effect1_dropShadow_205_11525" result="shape"/>
</filter>
<clipPath id="clip0_205_11525">
<rect width="17.3723" height="17.3723" fill="white" transform="translate(163.502 395.453)"/>
</clipPath>
<clipPath id="clip1_205_11525">
<rect width="17.3723" height="17.3723" fill="white" transform="translate(163.502 445.197)"/>
</clipPath>
<clipPath id="clip2_205_11525">
<rect width="17.3723" height="17.3723" fill="white" transform="translate(163.502 494.942)"/>
</clipPath>
</defs>
</svg>
